<svg width="241" height="241" viewBox="0 0 241 241" fill="none" xmlns="http://www.w3.org/2000/svg">
<path d="M238.646 236.291C239.946 236.291 241 237.345 241 238.646C241 239.946 239.946 241 238.646 241C237.346 241 236.292 239.946 236.292 238.646C236.292 237.345 237.346 236.291 238.646 236.291Z" fill="white" fill-opacity="0.5"/>
<path d="M226.212 223.858C227.511 223.858 228.566 224.912 228.566 226.212C228.566 227.512 227.511 228.566 226.212 228.566C224.912 228.566 223.857 227.512 223.857 226.212C223.857 224.912 224.912 223.858 226.212 223.858Z" fill="white" fill-opacity="0.5"/>
<path d="M238.646 223.858C239.946 223.858 241 224.912 241 226.212C241 227.512 239.946 228.566 238.646 228.566C237.346 228.566 236.292 227.512 236.292 226.212C236.292 224.912 237.346 223.858 238.646 223.858Z" fill="white" fill-opacity="0.5"/>
<path d="M213.778 211.424C215.078 211.424 216.132 212.478 216.132 213.778C216.132 215.078 215.078 216.132 213.778 216.132C212.478 216.132 211.424 215.078 211.424 213.778C211.424 212.478 212.478 211.424 213.778 211.424Z" fill="white" fill-opacity="0.5"/>
<path d="M226.212 211.424C227.511 211.424 228.566 212.478 228.566 213.778C228.566 215.078 227.511 216.132 226.212 216.132C224.912 216.132 223.857 215.078 223.857 213.778C223.857 212.478 224.912 211.424 226.212 211.424Z" fill="white" fill-opacity="0.5"/>
<path d="M238.646 211.424C239.946 211.424 241 212.478 241 213.778C241 215.078 239.946 216.132 238.646 216.132C237.346 216.132 236.292 215.078 236.292 213.778C236.292 212.478 237.346 211.424 238.646 211.424Z" fill="white" fill-opacity="0.5"/>
<path d="M201.345 198.965C202.645 198.965 203.699 200.019 203.699 201.32C203.699 202.62 202.645 203.674 201.345 203.674C200.044 203.674 198.99 202.62 198.99 201.32C198.99 200.019 200.044 198.965 201.345 198.965Z" fill="white" fill-opacity="0.5"/>
<path d="M213.778 198.965C215.078 198.965 216.132 200.019 216.132 201.32C216.132 202.62 215.078 203.674 213.778 203.674C212.478 203.674 211.424 202.62 211.424 201.32C211.424 200.019 212.478 198.965 213.778 198.965Z" fill="white" fill-opacity="0.5"/>
<path d="M226.212 198.99C227.511 198.99 228.566 200.044 228.566 201.344C228.566 202.644 227.511 203.699 226.212 203.699C224.912 203.699 223.857 202.644 223.857 201.344C223.857 200.044 224.912 198.99 226.212 198.99Z" fill="white" fill-opacity="0.5"/>
<path d="M238.646 198.965C239.946 198.965 241 200.019 241 201.32C241 202.62 239.946 203.674 238.646 203.674C237.346 203.674 236.292 202.62 236.292 201.32C236.292 200.019 237.346 198.965 238.646 198.965Z" fill="white" fill-opacity="0.5"/>
<path d="M188.911 186.556C190.211 186.556 191.265 187.611 191.265 188.91C191.265 190.21 190.211 191.265 188.911 191.265C187.611 191.265 186.556 190.21 186.556 188.91C186.556 187.611 187.611 186.556 188.911 186.556Z" fill="white" fill-opacity="0.5"/>
<path d="M201.345 186.532C202.645 186.532 203.699 187.586 203.699 188.886C203.699 190.186 202.645 191.24 201.345 191.24C200.044 191.24 198.99 190.186 198.99 188.886C198.99 187.586 200.044 186.532 201.345 186.532Z" fill="white" fill-opacity="0.5"/>
<path d="M213.778 186.532C215.078 186.532 216.132 187.586 216.132 188.886C216.132 190.186 215.078 191.24 213.778 191.24C212.478 191.24 211.424 190.186 211.424 188.886C211.424 187.586 212.478 186.532 213.778 186.532Z" fill="white" fill-opacity="0.5"/>
<path d="M226.212 186.556C227.511 186.556 228.566 187.611 228.566 188.91C228.566 190.21 227.511 191.265 226.212 191.265C224.912 191.265 223.857 190.21 223.857 188.91C223.857 187.611 224.912 186.556 226.212 186.556Z" fill="white" fill-opacity="0.5"/>
<path d="M238.646 186.532C239.946 186.532 241 187.586 241 188.886C241 190.186 239.946 191.24 238.646 191.24C237.346 191.24 236.292 190.186 236.292 188.886C236.292 187.586 237.346 186.532 238.646 186.532Z" fill="white" fill-opacity="0.5"/>
<path d="M176.477 174.098C177.777 174.098 178.831 175.152 178.831 176.452C178.831 177.752 177.777 178.806 176.477 178.806C175.177 178.806 174.123 177.752 174.123 176.452C174.123 175.152 175.177 174.098 176.477 174.098Z" fill="white" fill-opacity="0.5"/>
<path d="M188.911 174.122C190.211 174.122 191.265 175.177 191.265 176.477C191.265 177.776 190.211 178.831 188.911 178.831C187.611 178.831 186.556 177.776 186.556 176.477C186.556 175.177 187.611 174.122 188.911 174.122Z" fill="white" fill-opacity="0.5"/>
<path d="M201.345 174.098C202.645 174.098 203.699 175.152 203.699 176.452C203.699 177.752 202.645 178.806 201.345 178.806C200.044 178.806 198.99 177.752 198.99 176.452C198.99 175.152 200.044 174.098 201.345 174.098Z" fill="white" fill-opacity="0.5"/>
<path d="M213.778 174.098C215.078 174.098 216.132 175.152 216.132 176.452C216.132 177.752 215.078 178.806 213.778 178.806C212.478 178.806 211.424 177.752 211.424 176.452C211.424 175.152 212.478 174.098 213.778 174.098Z" fill="white" fill-opacity="0.5"/>
<path d="M226.212 174.122C227.511 174.122 228.566 175.177 228.566 176.477C228.566 177.776 227.511 178.831 226.212 178.831C224.912 178.831 223.857 177.776 223.857 176.477C223.857 175.177 224.912 174.122 226.212 174.122Z" fill="white" fill-opacity="0.5"/>
<path d="M238.646 174.098C239.946 174.098 241 175.152 241 176.452C241 177.752 239.946 178.806 238.646 178.806C237.346 178.806 236.292 177.752 236.292 176.452C236.292 175.152 237.346 174.098 238.646 174.098Z" fill="white" fill-opacity="0.5"/>
<path d="M164.043 161.664C165.343 161.664 166.397 162.718 166.397 164.018C166.397 165.319 165.343 166.373 164.043 166.373C162.742 166.373 161.688 165.319 161.688 164.018C161.688 162.718 162.742 161.664 164.043 161.664Z" fill="white" fill-opacity="0.5"/>
<path d="M176.477 161.664C177.777 161.664 178.831 162.718 178.831 164.018C178.831 165.319 177.777 166.373 176.477 166.373C175.177 166.373 174.123 165.319 174.123 164.018C174.123 162.718 175.177 161.664 176.477 161.664Z" fill="white" fill-opacity="0.5"/>
<path d="M188.911 161.689C190.211 161.689 191.265 162.743 191.265 164.043C191.265 165.343 190.211 166.397 188.911 166.397C187.611 166.397 186.556 165.343 186.556 164.043C186.556 162.743 187.611 161.689 188.911 161.689Z" fill="white" fill-opacity="0.5"/>
<path d="M201.345 161.664C202.645 161.664 203.699 162.718 203.699 164.018C203.699 165.319 202.645 166.373 201.345 166.373C200.044 166.373 198.99 165.319 198.99 164.018C198.99 162.718 200.044 161.664 201.345 161.664Z" fill="white" fill-opacity="0.5"/>
<path d="M213.778 161.664C215.078 161.664 216.132 162.718 216.132 164.018C216.132 165.319 215.078 166.373 213.778 166.373C212.478 166.373 211.424 165.319 211.424 164.018C211.424 162.718 212.478 161.664 213.778 161.664Z" fill="white" fill-opacity="0.5"/>
<path d="M226.212 161.689C227.511 161.689 228.566 162.743 228.566 164.043C228.566 165.343 227.511 166.397 226.212 166.397C224.912 166.397 223.857 165.343 223.857 164.043C223.857 162.743 224.912 161.689 226.212 161.689Z" fill="white" fill-opacity="0.5"/>
<path d="M238.646 161.664C239.946 161.664 241 162.718 241 164.018C241 165.319 239.946 166.373 238.646 166.373C237.346 166.373 236.292 165.319 236.292 164.018C236.292 162.718 237.346 161.664 238.646 161.664Z" fill="white" fill-opacity="0.5"/>
<path d="M151.585 149.23C152.885 149.23 153.939 150.284 153.939 151.585C153.939 152.885 152.885 153.939 151.585 153.939C150.285 153.939 149.231 152.885 149.231 151.585C149.231 150.284 150.285 149.23 151.585 149.23Z" fill="white" fill-opacity="0.5"/>
<path d="M164.043 149.23C165.343 149.23 166.397 150.284 166.397 151.585C166.397 152.885 165.343 153.939 164.043 153.939C162.742 153.939 161.688 152.885 161.688 151.585C161.688 150.284 162.742 149.23 164.043 149.23Z" fill="white" fill-opacity="0.5"/>
<path d="M176.477 149.23C177.777 149.23 178.831 150.284 178.831 151.585C178.831 152.885 177.777 153.939 176.477 153.939C175.177 153.939 174.123 152.885 174.123 151.585C174.123 150.284 175.177 149.23 176.477 149.23Z" fill="white" fill-opacity="0.5"/>
<path d="M188.911 149.23C190.211 149.23 191.265 150.285 191.265 151.585C191.265 152.884 190.211 153.939 188.911 153.939C187.611 153.939 186.556 152.884 186.556 151.585C186.556 150.285 187.611 149.23 188.911 149.23Z" fill="white" fill-opacity="0.5"/>
<path d="M201.345 149.23C202.645 149.23 203.699 150.284 203.699 151.585C203.699 152.885 202.645 153.939 201.345 153.939C200.044 153.939 198.99 152.885 198.99 151.585C198.99 150.284 200.044 149.23 201.345 149.23Z" fill="white" fill-opacity="0.5"/>
<path d="M213.778 149.23C215.078 149.23 216.132 150.284 216.132 151.585C216.132 152.885 215.078 153.939 213.778 153.939C212.478 153.939 211.424 152.885 211.424 151.585C211.424 150.284 212.478 149.23 213.778 149.23Z" fill="white" fill-opacity="0.5"/>
<path d="M226.212 149.23C227.511 149.23 228.566 150.285 228.566 151.585C228.566 152.884 227.511 153.939 226.212 153.939C224.912 153.939 223.857 152.884 223.857 151.585C223.857 150.285 224.912 149.23 226.212 149.23Z" fill="white" fill-opacity="0.5"/>
<path d="M238.646 149.23C239.946 149.23 241 150.284 241 151.585C241 152.885 239.946 153.939 238.646 153.939C237.346 153.939 236.292 152.885 236.292 151.585C236.292 150.284 237.346 149.23 238.646 149.23Z" fill="white" fill-opacity="0.5"/>
<path d="M139.151 136.796C140.451 136.796 141.505 137.85 141.505 139.151C141.505 140.451 140.451 141.505 139.151 141.505C137.851 141.505 136.796 140.451 136.796 139.151C136.796 137.85 137.851 136.796 139.151 136.796Z" fill="white" fill-opacity="0.5"/>
<path d="M151.585 136.796C152.885 136.796 153.939 137.85 153.939 139.151C153.939 140.451 152.885 141.505 151.585 141.505C150.285 141.505 149.231 140.451 149.231 139.151C149.231 137.85 150.285 136.796 151.585 136.796Z" fill="white" fill-opacity="0.5"/>
<path d="M164.043 136.796C165.343 136.796 166.397 137.85 166.397 139.151C166.397 140.451 165.343 141.505 164.043 141.505C162.742 141.505 161.688 140.451 161.688 139.151C161.688 137.85 162.742 136.796 164.043 136.796Z" fill="white" fill-opacity="0.5"/>
<path d="M176.477 136.796C177.777 136.796 178.831 137.85 178.831 139.151C178.831 140.451 177.777 141.505 176.477 141.505C175.177 141.505 174.123 140.451 174.123 139.151C174.123 137.85 175.177 136.796 176.477 136.796Z" fill="white" fill-opacity="0.5"/>
<path d="M188.911 136.796C190.211 136.796 191.265 137.851 191.265 139.151C191.265 140.45 190.211 141.505 188.911 141.505C187.611 141.505 186.556 140.45 186.556 139.151C186.556 137.851 187.611 136.796 188.911 136.796Z" fill="white" fill-opacity="0.5"/>
<path d="M201.345 136.796C202.645 136.796 203.699 137.85 203.699 139.151C203.699 140.451 202.645 141.505 201.345 141.505C200.044 141.505 198.99 140.451 198.99 139.151C198.99 137.85 200.044 136.796 201.345 136.796Z" fill="white" fill-opacity="0.5"/>
<path d="M213.778 136.796C215.078 136.796 216.132 137.85 216.132 139.151C216.132 140.451 215.078 141.505 213.778 141.505C212.478 141.505 211.424 140.451 211.424 139.151C211.424 137.85 212.478 136.796 213.778 136.796Z" fill="white" fill-opacity="0.5"/>
<path d="M226.212 136.796C227.511 136.796 228.566 137.851 228.566 139.151C228.566 140.45 227.511 141.505 226.212 141.505C224.912 141.505 223.857 140.45 223.857 139.151C223.857 137.851 224.912 136.796 226.212 136.796Z" fill="white" fill-opacity="0.5"/>
<path d="M238.646 136.796C239.946 136.796 241 137.85 241 139.151C241 140.451 239.946 141.505 238.646 141.505C237.346 141.505 236.292 140.451 236.292 139.151C236.292 137.85 237.346 136.796 238.646 136.796Z" fill="white" fill-opacity="0.5"/>
<path d="M126.717 124.363C128.016 124.363 129.071 125.417 129.071 126.717C129.071 128.017 128.016 129.071 126.717 129.071C125.417 129.071 124.362 128.017 124.362 126.717C124.362 125.417 125.417 124.363 126.717 124.363Z" fill="white" fill-opacity="0.5"/>
<path d="M139.151 124.363C140.451 124.363 141.505 125.417 141.505 126.717C141.505 128.017 140.451 129.071 139.151 129.071C137.851 129.071 136.796 128.017 136.796 126.717C136.796 125.417 137.851 124.363 139.151 124.363Z" fill="white" fill-opacity="0.5"/>
<path d="M151.585 124.363C152.885 124.363 153.939 125.417 153.939 126.717C153.939 128.017 152.885 129.071 151.585 129.071C150.285 129.071 149.231 128.017 149.231 126.717C149.231 125.417 150.285 124.363 151.585 124.363Z" fill="white" fill-opacity="0.5"/>
<path d="M164.043 124.363C165.342 124.363 166.397 125.417 166.397 126.717C166.397 128.017 165.342 129.071 164.043 129.071C162.743 129.071 161.688 128.017 161.688 126.717C161.688 125.417 162.743 124.363 164.043 124.363Z" fill="white" fill-opacity="0.5"/>
<path d="M176.477 124.363C177.777 124.363 178.831 125.417 178.831 126.717C178.831 128.017 177.777 129.071 176.477 129.071C175.177 129.071 174.123 128.017 174.123 126.717C174.123 125.417 175.177 124.363 176.477 124.363Z" fill="white" fill-opacity="0.5"/>
<path d="M188.911 124.363C190.211 124.363 191.265 125.417 191.265 126.717C191.265 128.017 190.211 129.071 188.911 129.071C187.611 129.071 186.556 128.017 186.556 126.717C186.556 125.417 187.611 124.363 188.911 124.363Z" fill="white" fill-opacity="0.5"/>
<path d="M201.345 124.363C202.644 124.363 203.699 125.417 203.699 126.717C203.699 128.017 202.644 129.071 201.345 129.071C200.045 129.071 198.99 128.017 198.99 126.717C198.99 125.417 200.045 124.363 201.345 124.363Z" fill="white" fill-opacity="0.5"/>
<path d="M213.778 124.363C215.078 124.363 216.132 125.417 216.132 126.717C216.132 128.017 215.078 129.071 213.778 129.071C212.478 129.071 211.424 128.017 211.424 126.717C211.424 125.417 212.478 124.363 213.778 124.363Z" fill="white" fill-opacity="0.5"/>
<path d="M226.212 124.363C227.511 124.363 228.566 125.417 228.566 126.717C228.566 128.017 227.511 129.071 226.212 129.071C224.912 129.071 223.857 128.017 223.857 126.717C223.857 125.417 224.912 124.363 226.212 124.363Z" fill="white" fill-opacity="0.5"/>
<path d="M238.646 124.363C239.946 124.363 241 125.417 241 126.717C241 128.017 239.946 129.071 238.646 129.071C237.346 129.071 236.292 128.017 236.292 126.717C236.292 125.417 237.346 124.363 238.646 124.363Z" fill="white" fill-opacity="0.5"/>
<path d="M114.283 111.929C115.583 111.929 116.638 112.983 116.638 114.283C116.638 115.583 115.583 116.637 114.283 116.637C112.983 116.637 111.929 115.583 111.929 114.283C111.929 112.983 112.983 111.929 114.283 111.929Z" fill="white" fill-opacity="0.5"/>
<path d="M126.717 111.929C128.017 111.929 129.071 112.983 129.071 114.283C129.071 115.583 128.017 116.637 126.717 116.637C125.416 116.637 124.362 115.583 124.362 114.283C124.362 112.983 125.416 111.929 126.717 111.929Z" fill="white" fill-opacity="0.5"/>
<path d="M139.151 111.929C140.451 111.929 141.505 112.983 141.505 114.283C141.505 115.583 140.451 116.637 139.151 116.637C137.851 116.637 136.796 115.583 136.796 114.283C136.796 112.983 137.851 111.929 139.151 111.929Z" fill="white" fill-opacity="0.5"/>
<path d="M151.585 111.929C152.885 111.929 153.939 112.983 153.939 114.283C153.939 115.583 152.885 116.637 151.585 116.637C150.285 116.637 149.231 115.583 149.231 114.283C149.231 112.983 150.285 111.929 151.585 111.929Z" fill="white" fill-opacity="0.5"/>
<path d="M164.043 111.929C165.343 111.929 166.397 112.983 166.397 114.283C166.397 115.583 165.343 116.637 164.043 116.637C162.742 116.637 161.688 115.583 161.688 114.283C161.688 112.983 162.742 111.929 164.043 111.929Z" fill="white" fill-opacity="0.5"/>
<path d="M176.477 111.929C177.777 111.929 178.831 112.983 178.831 114.283C178.831 115.583 177.777 116.637 176.477 116.637C175.177 116.637 174.123 115.583 174.123 114.283C174.123 112.983 175.177 111.929 176.477 111.929Z" fill="white" fill-opacity="0.5"/>
<path d="M188.911 111.929C190.211 111.929 191.265 112.983 191.265 114.283C191.265 115.583 190.211 116.637 188.911 116.637C187.611 116.637 186.556 115.583 186.556 114.283C186.556 112.983 187.611 111.929 188.911 111.929Z" fill="white" fill-opacity="0.5"/>
<path d="M201.345 111.929C202.645 111.929 203.699 112.983 203.699 114.283C203.699 115.583 202.645 116.637 201.345 116.637C200.044 116.637 198.99 115.583 198.99 114.283C198.99 112.983 200.044 111.929 201.345 111.929Z" fill="white" fill-opacity="0.5"/>
<path d="M213.778 111.929C215.078 111.929 216.132 112.983 216.132 114.283C216.132 115.583 215.078 116.637 213.778 116.637C212.478 116.637 211.424 115.583 211.424 114.283C211.424 112.983 212.478 111.929 213.778 111.929Z" fill="white" fill-opacity="0.5"/>
<path d="M226.212 111.929C227.511 111.929 228.566 112.983 228.566 114.283C228.566 115.583 227.511 116.637 226.212 116.637C224.912 116.637 223.857 115.583 223.857 114.283C223.857 112.983 224.912 111.929 226.212 111.929Z" fill="white" fill-opacity="0.5"/>
<path d="M238.646 111.929C239.946 111.929 241 112.983 241 114.283C241 115.583 239.946 116.637 238.646 116.637C237.346 116.637 236.292 115.583 236.292 114.283C236.292 112.983 237.346 111.929 238.646 111.929Z" fill="white" fill-opacity="0.5"/>
<path d="M101.849 99.495C103.149 99.495 104.204 100.55 104.204 101.849C104.204 103.149 103.149 104.204 101.849 104.204C100.55 104.204 99.4951 103.149 99.4951 101.849C99.4951 100.55 100.55 99.495 101.849 99.495Z" fill="white" fill-opacity="0.5"/>
<path d="M114.283 99.495C115.583 99.495 116.638 100.549 116.638 101.849C116.638 103.15 115.583 104.204 114.283 104.204C112.983 104.204 111.929 103.15 111.929 101.849C111.929 100.549 112.983 99.495 114.283 99.495Z" fill="white" fill-opacity="0.5"/>
<path d="M126.717 99.495C128.017 99.495 129.071 100.549 129.071 101.849C129.071 103.15 128.017 104.204 126.717 104.204C125.416 104.204 124.362 103.15 124.362 101.849C124.362 100.549 125.416 99.495 126.717 99.495Z" fill="white" fill-opacity="0.5"/>
<path d="M139.151 99.495C140.451 99.495 141.505 100.549 141.505 101.849C141.505 103.15 140.451 104.204 139.151 104.204C137.851 104.204 136.796 103.15 136.796 101.849C136.796 100.549 137.851 99.495 139.151 99.495Z" fill="white" fill-opacity="0.5"/>
<path d="M151.585 99.495C152.885 99.495 153.939 100.549 153.939 101.849C153.939 103.15 152.885 104.204 151.585 104.204C150.285 104.204 149.231 103.15 149.231 101.849C149.231 100.549 150.285 99.495 151.585 99.495Z" fill="white" fill-opacity="0.5"/>
<path d="M164.043 99.495C165.343 99.495 166.397 100.549 166.397 101.849C166.397 103.15 165.343 104.204 164.043 104.204C162.742 104.204 161.688 103.15 161.688 101.849C161.688 100.549 162.742 99.495 164.043 99.495Z" fill="white" fill-opacity="0.5"/>
<path d="M176.477 99.495C177.777 99.495 178.831 100.549 178.831 101.849C178.831 103.15 177.777 104.204 176.477 104.204C175.177 104.204 174.123 103.15 174.123 101.849C174.123 100.549 175.177 99.495 176.477 99.495Z" fill="white" fill-opacity="0.5"/>
<path d="M188.911 99.495C190.211 99.495 191.265 100.55 191.265 101.849C191.265 103.149 190.211 104.204 188.911 104.204C187.611 104.204 186.556 103.149 186.556 101.849C186.556 100.55 187.611 99.495 188.911 99.495Z" fill="white" fill-opacity="0.5"/>
<path d="M201.345 99.495C202.645 99.495 203.699 100.549 203.699 101.849C203.699 103.15 202.645 104.204 201.345 104.204C200.044 104.204 198.99 103.15 198.99 101.849C198.99 100.549 200.044 99.495 201.345 99.495Z" fill="white" fill-opacity="0.5"/>
<path d="M213.778 99.495C215.078 99.495 216.132 100.549 216.132 101.849C216.132 103.15 215.078 104.204 213.778 104.204C212.478 104.204 211.424 103.15 211.424 101.849C211.424 100.549 212.478 99.495 213.778 99.495Z" fill="white" fill-opacity="0.5"/>
<path d="M226.212 99.495C227.511 99.495 228.566 100.55 228.566 101.849C228.566 103.149 227.511 104.204 226.212 104.204C224.912 104.204 223.857 103.149 223.857 101.849C223.857 100.55 224.912 99.495 226.212 99.495Z" fill="white" fill-opacity="0.5"/>
<path d="M238.646 99.495C239.946 99.495 241 100.549 241 101.849C241 103.15 239.946 104.204 238.646 104.204C237.346 104.204 236.292 103.15 236.292 101.849C236.292 100.549 237.346 99.495 238.646 99.495Z" fill="white" fill-opacity="0.5"/>
<path d="M89.4157 87.0611C90.7155 87.0611 91.77 88.1156 91.77 89.4154C91.77 90.7152 90.7155 91.7698 89.4157 91.7698C88.1159 91.7698 87.0613 90.7152 87.0613 89.4154C87.0613 88.1156 88.1159 87.0611 89.4157 87.0611Z" fill="white" fill-opacity="0.5"/>
<path d="M101.849 87.0611C103.149 87.0611 104.204 88.1156 104.204 89.4154C104.204 90.7152 103.149 91.7698 101.849 91.7698C100.55 91.7698 99.4951 90.7152 99.4951 89.4154C99.4951 88.1156 100.55 87.0611 101.849 87.0611Z" fill="white" fill-opacity="0.5"/>
<path d="M114.283 87.0611C115.583 87.0611 116.638 88.1156 116.638 89.4154C116.638 90.7152 115.583 91.7698 114.283 91.7698C112.983 91.7698 111.929 90.7152 111.929 89.4154C111.929 88.1156 112.983 87.0611 114.283 87.0611Z" fill="white" fill-opacity="0.5"/>
<path d="M126.717 87.0611C128.016 87.0611 129.071 88.1156 129.071 89.4154C129.071 90.7152 128.016 91.7698 126.717 91.7698C125.417 91.7698 124.362 90.7152 124.362 89.4154C124.362 88.1156 125.417 87.0611 126.717 87.0611Z" fill="white" fill-opacity="0.5"/>
<path d="M139.151 87.0611C140.451 87.0611 141.505 88.1156 141.505 89.4154C141.505 90.7152 140.451 91.7698 139.151 91.7698C137.851 91.7698 136.796 90.7152 136.796 89.4154C136.796 88.1156 137.851 87.0611 139.151 87.0611Z" fill="white" fill-opacity="0.5"/>
<path d="M151.585 87.0611C152.885 87.0611 153.939 88.1156 153.939 89.4154C153.939 90.7152 152.885 91.7698 151.585 91.7698C150.285 91.7698 149.231 90.7152 149.231 89.4154C149.231 88.1156 150.285 87.0611 151.585 87.0611Z" fill="white" fill-opacity="0.5"/>
<path d="M164.043 87.0611C165.342 87.0611 166.397 88.1156 166.397 89.4154C166.397 90.7152 165.342 91.7698 164.043 91.7698C162.743 91.7698 161.688 90.7152 161.688 89.4154C161.688 88.1156 162.743 87.0611 164.043 87.0611Z" fill="white" fill-opacity="0.5"/>
<path d="M176.477 87.0611C177.777 87.0611 178.831 88.1156 178.831 89.4154C178.831 90.7152 177.777 91.7698 176.477 91.7698C175.177 91.7698 174.123 90.7152 174.123 89.4154C174.123 88.1156 175.177 87.0611 176.477 87.0611Z" fill="white" fill-opacity="0.5"/>
<path d="M188.911 87.0611C190.211 87.0611 191.265 88.1156 191.265 89.4154C191.265 90.7152 190.211 91.7698 188.911 91.7698C187.611 91.7698 186.556 90.7152 186.556 89.4154C186.556 88.1156 187.611 87.0611 188.911 87.0611Z" fill="white" fill-opacity="0.5"/>
<path d="M201.345 87.0611C202.644 87.0611 203.699 88.1156 203.699 89.4154C203.699 90.7152 202.644 91.7698 201.345 91.7698C200.045 91.7698 198.99 90.7152 198.99 89.4154C198.99 88.1156 200.045 87.0611 201.345 87.0611Z" fill="white" fill-opacity="0.5"/>
<path d="M213.778 87.0611C215.078 87.0611 216.132 88.1156 216.132 89.4154C216.132 90.7152 215.078 91.7698 213.778 91.7698C212.478 91.7698 211.424 90.7152 211.424 89.4154C211.424 88.1156 212.478 87.0611 213.778 87.0611Z" fill="white" fill-opacity="0.5"/>
<path d="M226.212 87.0611C227.511 87.0611 228.566 88.1156 228.566 89.4154C228.566 90.7152 227.511 91.7698 226.212 91.7698C224.912 91.7698 223.857 90.7152 223.857 89.4154C223.857 88.1156 224.912 87.0611 226.212 87.0611Z" fill="white" fill-opacity="0.5"/>
<path d="M238.646 87.0611C239.946 87.0611 241 88.1156 241 89.4154C241 90.7152 239.946 91.7698 238.646 91.7698C237.346 91.7698 236.292 90.7152 236.292 89.4154C236.292 88.1156 237.346 87.0611 238.646 87.0611Z" fill="white" fill-opacity="0.5"/>
<path d="M76.9818 74.6029C78.2821 74.6029 79.3361 75.6569 79.3361 76.9572C79.3361 78.2574 78.2821 79.3115 76.9818 79.3115C75.6816 79.3115 74.6275 78.2574 74.6275 76.9572C74.6275 75.6569 75.6816 74.6029 76.9818 74.6029Z" fill="white" fill-opacity="0.5"/>
<path d="M89.4157 74.6029C90.7159 74.6029 91.77 75.6569 91.77 76.9572C91.77 78.2574 90.7159 79.3115 89.4157 79.3115C88.1154 79.3115 87.0613 78.2574 87.0613 76.9572C87.0613 75.6569 88.1154 74.6029 89.4157 74.6029Z" fill="white" fill-opacity="0.5"/>
<path d="M101.849 74.6273C103.149 74.6273 104.204 75.6818 104.204 76.9816C104.204 78.2814 103.149 79.3359 101.849 79.3359C100.55 79.3359 99.4951 78.2814 99.4951 76.9816C99.4951 75.6818 100.55 74.6273 101.849 74.6273Z" fill="white" fill-opacity="0.5"/>
<path d="M114.283 74.6029C115.583 74.6029 116.638 75.6569 116.638 76.9572C116.638 78.2574 115.583 79.3115 114.283 79.3115C112.983 79.3115 111.929 78.2574 111.929 76.9572C111.929 75.6569 112.983 74.6029 114.283 74.6029Z" fill="white" fill-opacity="0.5"/>
<path d="M126.717 74.6029C128.017 74.6029 129.071 75.6569 129.071 76.9572C129.071 78.2574 128.017 79.3115 126.717 79.3115C125.416 79.3115 124.362 78.2574 124.362 76.9572C124.362 75.6569 125.416 74.6029 126.717 74.6029Z" fill="white" fill-opacity="0.5"/>
<path d="M139.151 74.6029C140.451 74.6029 141.505 75.6569 141.505 76.9572C141.505 78.2574 140.451 79.3115 139.151 79.3115C137.851 79.3115 136.796 78.2574 136.796 76.9572C136.796 75.6569 137.851 74.6029 139.151 74.6029Z" fill="white" fill-opacity="0.5"/>
<path d="M151.585 74.6029C152.885 74.6029 153.939 75.6569 153.939 76.9572C153.939 78.2574 152.885 79.3115 151.585 79.3115C150.285 79.3115 149.231 78.2574 149.231 76.9572C149.231 75.6569 150.285 74.6029 151.585 74.6029Z" fill="white" fill-opacity="0.5"/>
<path d="M164.043 74.6029C165.343 74.6029 166.397 75.6569 166.397 76.9572C166.397 78.2574 165.343 79.3115 164.043 79.3115C162.742 79.3115 161.688 78.2574 161.688 76.9572C161.688 75.6569 162.742 74.6029 164.043 74.6029Z" fill="white" fill-opacity="0.5"/>
<path d="M176.477 74.6029C177.777 74.6029 178.831 75.6569 178.831 76.9572C178.831 78.2574 177.777 79.3115 176.477 79.3115C175.177 79.3115 174.123 78.2574 174.123 76.9572C174.123 75.6569 175.177 74.6029 176.477 74.6029Z" fill="white" fill-opacity="0.5"/>
<path d="M188.911 74.6273C190.211 74.6273 191.265 75.6818 191.265 76.9816C191.265 78.2814 190.211 79.3359 188.911 79.3359C187.611 79.3359 186.556 78.2814 186.556 76.9816C186.556 75.6818 187.611 74.6273 188.911 74.6273Z" fill="white" fill-opacity="0.5"/>
<path d="M201.345 74.6029C202.645 74.6029 203.699 75.6569 203.699 76.9572C203.699 78.2574 202.645 79.3115 201.345 79.3115C200.044 79.3115 198.99 78.2574 198.99 76.9572C198.99 75.6569 200.044 74.6029 201.345 74.6029Z" fill="white" fill-opacity="0.5"/>
<path d="M213.778 74.6029C215.078 74.6029 216.132 75.6569 216.132 76.9572C216.132 78.2574 215.078 79.3115 213.778 79.3115C212.478 79.3115 211.424 78.2574 211.424 76.9572C211.424 75.6569 212.478 74.6029 213.778 74.6029Z" fill="white" fill-opacity="0.5"/>
<path d="M226.212 74.6273C227.511 74.6273 228.566 75.6818 228.566 76.9816C228.566 78.2814 227.511 79.3359 226.212 79.3359C224.912 79.3359 223.857 78.2814 223.857 76.9816C223.857 75.6818 224.912 74.6273 226.212 74.6273Z" fill="white" fill-opacity="0.5"/>
<path d="M238.646 74.6029C239.946 74.6029 241 75.6569 241 76.9572C241 78.2574 239.946 79.3115 238.646 79.3115C237.346 79.3115 236.292 78.2574 236.292 76.9572C236.292 75.6569 237.346 74.6029 238.646 74.6029Z" fill="white" fill-opacity="0.5"/>
<path d="M64.548 62.1936C65.8478 62.1936 66.9024 63.2481 66.9024 64.5479C66.9024 65.8477 65.8478 66.9022 64.548 66.9022C63.2482 66.9022 62.1937 65.8477 62.1937 64.5479C62.1937 63.2481 63.2482 62.1936 64.548 62.1936Z" fill="white" fill-opacity="0.5"/>
<path d="M76.9818 62.169C78.2821 62.169 79.3361 63.2231 79.3361 64.5234C79.3361 65.8236 78.2821 66.8777 76.9818 66.8777C75.6816 66.8777 74.6275 65.8236 74.6275 64.5234C74.6275 63.2231 75.6816 62.169 76.9818 62.169Z" fill="white" fill-opacity="0.5"/>
<path d="M89.4157 62.169C90.7159 62.169 91.77 63.2231 91.77 64.5234C91.77 65.8236 90.7159 66.8777 89.4157 66.8777C88.1154 66.8777 87.0613 65.8236 87.0613 64.5234C87.0613 63.2231 88.1154 62.169 89.4157 62.169Z" fill="white" fill-opacity="0.5"/>
<path d="M101.849 62.1936C103.149 62.1936 104.204 63.2481 104.204 64.5479C104.204 65.8477 103.149 66.9022 101.849 66.9022C100.55 66.9022 99.4951 65.8477 99.4951 64.5479C99.4951 63.2481 100.55 62.1936 101.849 62.1936Z" fill="white" fill-opacity="0.5"/>
<path d="M114.283 62.169C115.583 62.169 116.638 63.2231 116.638 64.5234C116.638 65.8236 115.583 66.8777 114.283 66.8777C112.983 66.8777 111.929 65.8236 111.929 64.5234C111.929 63.2231 112.983 62.169 114.283 62.169Z" fill="white" fill-opacity="0.5"/>
<path d="M126.717 62.169C128.017 62.169 129.071 63.2231 129.071 64.5234C129.071 65.8236 128.017 66.8777 126.717 66.8777C125.416 66.8777 124.362 65.8236 124.362 64.5234C124.362 63.2231 125.416 62.169 126.717 62.169Z" fill="white" fill-opacity="0.5"/>
<path d="M139.151 62.169C140.451 62.169 141.505 63.2231 141.505 64.5234C141.505 65.8236 140.451 66.8777 139.151 66.8777C137.851 66.8777 136.796 65.8236 136.796 64.5234C136.796 63.2231 137.851 62.169 139.151 62.169Z" fill="white" fill-opacity="0.5"/>
<path d="M151.585 62.169C152.885 62.169 153.939 63.2231 153.939 64.5234C153.939 65.8236 152.885 66.8777 151.585 66.8777C150.285 66.8777 149.231 65.8236 149.231 64.5234C149.231 63.2231 150.285 62.169 151.585 62.169Z" fill="white" fill-opacity="0.5"/>
<path d="M164.043 62.169C165.343 62.169 166.397 63.2231 166.397 64.5234C166.397 65.8236 165.343 66.8777 164.043 66.8777C162.742 66.8777 161.688 65.8236 161.688 64.5234C161.688 63.2231 162.742 62.169 164.043 62.169Z" fill="white" fill-opacity="0.5"/>
<path d="M176.477 62.169C177.777 62.169 178.831 63.2231 178.831 64.5234C178.831 65.8236 177.777 66.8777 176.477 66.8777C175.177 66.8777 174.123 65.8236 174.123 64.5234C174.123 63.2231 175.177 62.169 176.477 62.169Z" fill="white" fill-opacity="0.5"/>
<path d="M188.911 62.1936C190.211 62.1936 191.265 63.2481 191.265 64.5479C191.265 65.8477 190.211 66.9022 188.911 66.9022C187.611 66.9022 186.556 65.8477 186.556 64.5479C186.556 63.2481 187.611 62.1936 188.911 62.1936Z" fill="white" fill-opacity="0.5"/>
<path d="M201.345 62.169C202.645 62.169 203.699 63.2231 203.699 64.5234C203.699 65.8236 202.645 66.8777 201.345 66.8777C200.044 66.8777 198.99 65.8236 198.99 64.5234C198.99 63.2231 200.044 62.169 201.345 62.169Z" fill="white" fill-opacity="0.5"/>
<path d="M213.778 62.169C215.078 62.169 216.132 63.2231 216.132 64.5234C216.132 65.8236 215.078 66.8777 213.778 66.8777C212.478 66.8777 211.424 65.8236 211.424 64.5234C211.424 63.2231 212.478 62.169 213.778 62.169Z" fill="white" fill-opacity="0.5"/>
<path d="M226.212 62.1936C227.511 62.1936 228.566 63.2481 228.566 64.5479C228.566 65.8477 227.511 66.9022 226.212 66.9022C224.912 66.9022 223.857 65.8477 223.857 64.5479C223.857 63.2481 224.912 62.1936 226.212 62.1936Z" fill="white" fill-opacity="0.5"/>
<path d="M238.646 62.169C239.946 62.169 241 63.2231 241 64.5234C241 65.8236 239.946 66.8777 238.646 66.8777C237.346 66.8777 236.292 65.8236 236.292 64.5234C236.292 63.2231 237.346 62.169 238.646 62.169Z" fill="white" fill-opacity="0.5"/>
<path d="M52.1142 49.7352C53.4145 49.7352 54.4686 50.7892 54.4686 52.0895C54.4686 53.3898 53.4145 54.4438 52.1142 54.4438C50.814 54.4438 49.7599 53.3898 49.7599 52.0895C49.7599 50.7892 50.814 49.7352 52.1142 49.7352Z" fill="white" fill-opacity="0.5"/>
<path d="M64.548 49.7597C65.8478 49.7597 66.9024 50.8143 66.9024 52.1141C66.9024 53.4139 65.8478 54.4684 64.548 54.4684C63.2482 54.4684 62.1937 53.4139 62.1937 52.1141C62.1937 50.8143 63.2482 49.7597 64.548 49.7597Z" fill="white" fill-opacity="0.5"/>
<path d="M76.9818 49.7352C78.2821 49.7352 79.3361 50.7892 79.3361 52.0895C79.3361 53.3898 78.2821 54.4438 76.9818 54.4438C75.6816 54.4438 74.6275 53.3898 74.6275 52.0895C74.6275 50.7892 75.6816 49.7352 76.9818 49.7352Z" fill="white" fill-opacity="0.5"/>
<path d="M89.4157 49.7352C90.7159 49.7352 91.77 50.7892 91.77 52.0895C91.77 53.3898 90.7159 54.4438 89.4157 54.4438C88.1154 54.4438 87.0613 53.3898 87.0613 52.0895C87.0613 50.7892 88.1154 49.7352 89.4157 49.7352Z" fill="white" fill-opacity="0.5"/>
<path d="M101.849 49.7597C103.149 49.7597 104.204 50.8143 104.204 52.1141C104.204 53.4139 103.149 54.4684 101.849 54.4684C100.55 54.4684 99.4951 53.4139 99.4951 52.1141C99.4951 50.8143 100.55 49.7597 101.849 49.7597Z" fill="white" fill-opacity="0.5"/>
<path d="M114.283 49.7352C115.583 49.7352 116.638 50.7892 116.638 52.0895C116.638 53.3898 115.583 54.4438 114.283 54.4438C112.983 54.4438 111.929 53.3898 111.929 52.0895C111.929 50.7892 112.983 49.7352 114.283 49.7352Z" fill="white" fill-opacity="0.5"/>
<path d="M126.717 49.7352C128.017 49.7352 129.071 50.7892 129.071 52.0895C129.071 53.3898 128.017 54.4438 126.717 54.4438C125.416 54.4438 124.362 53.3898 124.362 52.0895C124.362 50.7892 125.416 49.7352 126.717 49.7352Z" fill="white" fill-opacity="0.5"/>
<path d="M139.151 49.7352C140.451 49.7352 141.505 50.7892 141.505 52.0895C141.505 53.3898 140.451 54.4438 139.151 54.4438C137.851 54.4438 136.796 53.3898 136.796 52.0895C136.796 50.7892 137.851 49.7352 139.151 49.7352Z" fill="white" fill-opacity="0.5"/>
<path d="M151.585 49.7352C152.885 49.7352 153.939 50.7892 153.939 52.0895C153.939 53.3898 152.885 54.4438 151.585 54.4438C150.285 54.4438 149.231 53.3898 149.231 52.0895C149.231 50.7892 150.285 49.7352 151.585 49.7352Z" fill="white" fill-opacity="0.5"/>
<path d="M164.043 49.7352C165.343 49.7352 166.397 50.7892 166.397 52.0895C166.397 53.3898 165.343 54.4438 164.043 54.4438C162.742 54.4438 161.688 53.3898 161.688 52.0895C161.688 50.7892 162.742 49.7352 164.043 49.7352Z" fill="white" fill-opacity="0.5"/>
<path d="M176.477 49.7352C177.777 49.7352 178.831 50.7892 178.831 52.0895C178.831 53.3898 177.777 54.4438 176.477 54.4438C175.177 54.4438 174.123 53.3898 174.123 52.0895C174.123 50.7892 175.177 49.7352 176.477 49.7352Z" fill="white" fill-opacity="0.5"/>
<path d="M188.911 49.7597C190.211 49.7597 191.265 50.8143 191.265 52.1141C191.265 53.4139 190.211 54.4684 188.911 54.4684C187.611 54.4684 186.556 53.4139 186.556 52.1141C186.556 50.8143 187.611 49.7597 188.911 49.7597Z" fill="white" fill-opacity="0.5"/>
<path d="M201.345 49.7352C202.645 49.7352 203.699 50.7892 203.699 52.0895C203.699 53.3898 202.645 54.4438 201.345 54.4438C200.044 54.4438 198.99 53.3898 198.99 52.0895C198.99 50.7892 200.044 49.7352 201.345 49.7352Z" fill="white" fill-opacity="0.5"/>
<path d="M213.778 49.7352C215.078 49.7352 216.132 50.7892 216.132 52.0895C216.132 53.3898 215.078 54.4438 213.778 54.4438C212.478 54.4438 211.424 53.3898 211.424 52.0895C211.424 50.7892 212.478 49.7352 213.778 49.7352Z" fill="white" fill-opacity="0.5"/>
<path d="M226.212 49.7597C227.511 49.7597 228.566 50.8143 228.566 52.1141C228.566 53.4139 227.511 54.4684 226.212 54.4684C224.912 54.4684 223.857 53.4139 223.857 52.1141C223.857 50.8143 224.912 49.7597 226.212 49.7597Z" fill="white" fill-opacity="0.5"/>
<path d="M238.646 49.7352C239.946 49.7352 241 50.7892 241 52.0895C241 53.3898 239.946 54.4438 238.646 54.4438C237.346 54.4438 236.292 53.3898 236.292 52.0895C236.292 50.7892 237.346 49.7352 238.646 49.7352Z" fill="white" fill-opacity="0.5"/>
<path d="M39.68 37.3014C40.9803 37.3014 42.0343 38.3554 42.0343 39.6557C42.0343 40.956 40.9803 42.01 39.68 42.01C38.3798 42.01 37.3257 40.956 37.3257 39.6557C37.3257 38.3554 38.3798 37.3014 39.68 37.3014Z" fill="white" fill-opacity="0.5"/>
<path d="M52.1142 37.3014C53.4145 37.3014 54.4686 38.3554 54.4686 39.6557C54.4686 40.956 53.4145 42.01 52.1142 42.01C50.814 42.01 49.7599 40.956 49.7599 39.6557C49.7599 38.3554 50.814 37.3014 52.1142 37.3014Z" fill="white" fill-opacity="0.5"/>
<path d="M64.548 37.3014C65.8478 37.3014 66.9024 38.3559 66.9024 39.6557C66.9024 40.9555 65.8478 42.01 64.548 42.01C63.2482 42.01 62.1937 40.9555 62.1937 39.6557C62.1937 38.3559 63.2482 37.3014 64.548 37.3014Z" fill="white" fill-opacity="0.5"/>
<path d="M76.9818 37.3014C78.2821 37.3014 79.3361 38.3554 79.3361 39.6557C79.3361 40.956 78.2821 42.01 76.9818 42.01C75.6816 42.01 74.6275 40.956 74.6275 39.6557C74.6275 38.3554 75.6816 37.3014 76.9818 37.3014Z" fill="white" fill-opacity="0.5"/>
<path d="M89.4157 37.3014C90.7159 37.3014 91.77 38.3554 91.77 39.6557C91.77 40.956 90.7159 42.01 89.4157 42.01C88.1154 42.01 87.0613 40.956 87.0613 39.6557C87.0613 38.3554 88.1154 37.3014 89.4157 37.3014Z" fill="white" fill-opacity="0.5"/>
<path d="M101.849 37.3014C103.149 37.3014 104.204 38.3559 104.204 39.6557C104.204 40.9555 103.149 42.01 101.849 42.01C100.55 42.01 99.4951 40.9555 99.4951 39.6557C99.4951 38.3559 100.55 37.3014 101.849 37.3014Z" fill="white" fill-opacity="0.5"/>
<path d="M114.283 37.3014C115.583 37.3014 116.638 38.3554 116.638 39.6557C116.638 40.956 115.583 42.01 114.283 42.01C112.983 42.01 111.929 40.956 111.929 39.6557C111.929 38.3554 112.983 37.3014 114.283 37.3014Z" fill="white" fill-opacity="0.5"/>
<path d="M126.717 37.3014C128.017 37.3014 129.071 38.3554 129.071 39.6557C129.071 40.956 128.017 42.01 126.717 42.01C125.416 42.01 124.362 40.956 124.362 39.6557C124.362 38.3554 125.416 37.3014 126.717 37.3014Z" fill="white" fill-opacity="0.5"/>
<path d="M139.151 37.3014C140.451 37.3014 141.505 38.3554 141.505 39.6557C141.505 40.956 140.451 42.01 139.151 42.01C137.851 42.01 136.796 40.956 136.796 39.6557C136.796 38.3554 137.851 37.3014 139.151 37.3014Z" fill="white" fill-opacity="0.5"/>
<path d="M151.585 37.3014C152.885 37.3014 153.939 38.3554 153.939 39.6557C153.939 40.956 152.885 42.01 151.585 42.01C150.285 42.01 149.231 40.956 149.231 39.6557C149.231 38.3554 150.285 37.3014 151.585 37.3014Z" fill="white" fill-opacity="0.5"/>
<path d="M164.043 37.3014C165.343 37.3014 166.397 38.3554 166.397 39.6557C166.397 40.956 165.343 42.01 164.043 42.01C162.742 42.01 161.688 40.956 161.688 39.6557C161.688 38.3554 162.742 37.3014 164.043 37.3014Z" fill="white" fill-opacity="0.5"/>
<path d="M176.477 37.3014C177.777 37.3014 178.831 38.3554 178.831 39.6557C178.831 40.956 177.777 42.01 176.477 42.01C175.177 42.01 174.123 40.956 174.123 39.6557C174.123 38.3554 175.177 37.3014 176.477 37.3014Z" fill="white" fill-opacity="0.5"/>
<path d="M188.911 37.3014C190.211 37.3014 191.265 38.3559 191.265 39.6557C191.265 40.9555 190.211 42.01 188.911 42.01C187.611 42.01 186.556 40.9555 186.556 39.6557C186.556 38.3559 187.611 37.3014 188.911 37.3014Z" fill="white" fill-opacity="0.5"/>
<path d="M201.345 37.3014C202.645 37.3014 203.699 38.3554 203.699 39.6557C203.699 40.956 202.645 42.01 201.345 42.01C200.044 42.01 198.99 40.956 198.99 39.6557C198.99 38.3554 200.044 37.3014 201.345 37.3014Z" fill="white" fill-opacity="0.5"/>
<path d="M213.778 37.3014C215.078 37.3014 216.132 38.3554 216.132 39.6557C216.132 40.956 215.078 42.01 213.778 42.01C212.478 42.01 211.424 40.956 211.424 39.6557C211.424 38.3554 212.478 37.3014 213.778 37.3014Z" fill="white" fill-opacity="0.5"/>
<path d="M226.212 37.3014C227.511 37.3014 228.566 38.3559 228.566 39.6557C228.566 40.9555 227.511 42.01 226.212 42.01C224.912 42.01 223.857 40.9555 223.857 39.6557C223.857 38.3559 224.912 37.3014 226.212 37.3014Z" fill="white" fill-opacity="0.5"/>
<path d="M238.646 37.3014C239.946 37.3014 241 38.3554 241 39.6557C241 40.956 239.946 42.01 238.646 42.01C237.346 42.01 236.292 40.956 236.292 39.6557C236.292 38.3554 237.346 37.3014 238.646 37.3014Z" fill="white" fill-opacity="0.5"/>
<path d="M27.2219 24.8676C28.5222 24.8676 29.5763 25.9217 29.5763 27.2219C29.5763 28.5222 28.5222 29.5763 27.2219 29.5763C25.9216 29.5763 24.8676 28.5222 24.8676 27.2219C24.8676 25.9217 25.9216 24.8676 27.2219 24.8676Z" fill="white" fill-opacity="0.5"/>
<path d="M39.68 24.8676C40.9803 24.8676 42.0343 25.9217 42.0343 27.2219C42.0343 28.5222 40.9803 29.5763 39.68 29.5763C38.3798 29.5763 37.3257 28.5222 37.3257 27.2219C37.3257 25.9217 38.3798 24.8676 39.68 24.8676Z" fill="white" fill-opacity="0.5"/>
<path d="M52.1142 24.8676C53.4145 24.8676 54.4686 25.9217 54.4686 27.2219C54.4686 28.5222 53.4145 29.5763 52.1142 29.5763C50.814 29.5763 49.7599 28.5222 49.7599 27.2219C49.7599 25.9217 50.814 24.8676 52.1142 24.8676Z" fill="white" fill-opacity="0.5"/>
<path d="M64.548 24.8676C65.8478 24.8676 66.9024 25.9222 66.9024 27.2219C66.9024 28.5217 65.8478 29.5763 64.548 29.5763C63.2482 29.5763 62.1937 28.5217 62.1937 27.2219C62.1937 25.9222 63.2482 24.8676 64.548 24.8676Z" fill="white" fill-opacity="0.5"/>
<path d="M76.9818 24.8676C78.2821 24.8676 79.3361 25.9217 79.3361 27.2219C79.3361 28.5222 78.2821 29.5763 76.9818 29.5763C75.6816 29.5763 74.6275 28.5222 74.6275 27.2219C74.6275 25.9217 75.6816 24.8676 76.9818 24.8676Z" fill="white" fill-opacity="0.5"/>
<path d="M89.4157 24.8676C90.7159 24.8676 91.77 25.9217 91.77 27.2219C91.77 28.5222 90.7159 29.5763 89.4157 29.5763C88.1154 29.5763 87.0613 28.5222 87.0613 27.2219C87.0613 25.9217 88.1154 24.8676 89.4157 24.8676Z" fill="white" fill-opacity="0.5"/>
<path d="M101.849 24.8676C103.149 24.8676 104.204 25.9222 104.204 27.2219C104.204 28.5217 103.149 29.5763 101.849 29.5763C100.55 29.5763 99.4951 28.5217 99.4951 27.2219C99.4951 25.9222 100.55 24.8676 101.849 24.8676Z" fill="white" fill-opacity="0.5"/>
<path d="M114.283 24.8676C115.583 24.8676 116.638 25.9217 116.638 27.2219C116.638 28.5222 115.583 29.5763 114.283 29.5763C112.983 29.5763 111.929 28.5222 111.929 27.2219C111.929 25.9217 112.983 24.8676 114.283 24.8676Z" fill="white" fill-opacity="0.5"/>
<path d="M126.717 24.8676C128.017 24.8676 129.071 25.9217 129.071 27.2219C129.071 28.5222 128.017 29.5763 126.717 29.5763C125.416 29.5763 124.362 28.5222 124.362 27.2219C124.362 25.9217 125.416 24.8676 126.717 24.8676Z" fill="white" fill-opacity="0.5"/>
<path d="M139.151 24.8676C140.451 24.8676 141.505 25.9217 141.505 27.2219C141.505 28.5222 140.451 29.5763 139.151 29.5763C137.851 29.5763 136.796 28.5222 136.796 27.2219C136.796 25.9217 137.851 24.8676 139.151 24.8676Z" fill="white" fill-opacity="0.5"/>
<path d="M151.585 24.8676C152.885 24.8676 153.939 25.9217 153.939 27.2219C153.939 28.5222 152.885 29.5763 151.585 29.5763C150.285 29.5763 149.231 28.5222 149.231 27.2219C149.231 25.9217 150.285 24.8676 151.585 24.8676Z" fill="white" fill-opacity="0.5"/>
<path d="M164.043 24.8676C165.343 24.8676 166.397 25.9217 166.397 27.2219C166.397 28.5222 165.343 29.5763 164.043 29.5763C162.742 29.5763 161.688 28.5222 161.688 27.2219C161.688 25.9217 162.742 24.8676 164.043 24.8676Z" fill="white" fill-opacity="0.5"/>
<path d="M176.477 24.8676C177.777 24.8676 178.831 25.9217 178.831 27.2219C178.831 28.5222 177.777 29.5763 176.477 29.5763C175.177 29.5763 174.123 28.5222 174.123 27.2219C174.123 25.9217 175.177 24.8676 176.477 24.8676Z" fill="white" fill-opacity="0.5"/>
<path d="M188.911 24.8676C190.211 24.8676 191.265 25.9222 191.265 27.2219C191.265 28.5217 190.211 29.5763 188.911 29.5763C187.611 29.5763 186.556 28.5217 186.556 27.2219C186.556 25.9222 187.611 24.8676 188.911 24.8676Z" fill="white" fill-opacity="0.5"/>
<path d="M201.345 24.8676C202.645 24.8676 203.699 25.9217 203.699 27.2219C203.699 28.5222 202.645 29.5763 201.345 29.5763C200.044 29.5763 198.99 28.5222 198.99 27.2219C198.99 25.9217 200.044 24.8676 201.345 24.8676Z" fill="white" fill-opacity="0.5"/>
<path d="M213.778 24.8676C215.078 24.8676 216.132 25.9217 216.132 27.2219C216.132 28.5222 215.078 29.5763 213.778 29.5763C212.478 29.5763 211.424 28.5222 211.424 27.2219C211.424 25.9217 212.478 24.8676 213.778 24.8676Z" fill="white" fill-opacity="0.5"/>
<path d="M226.212 24.8676C227.511 24.8676 228.566 25.9222 228.566 27.2219C228.566 28.5217 227.511 29.5763 226.212 29.5763C224.912 29.5763 223.857 28.5217 223.857 27.2219C223.857 25.9222 224.912 24.8676 226.212 24.8676Z" fill="white" fill-opacity="0.5"/>
<path d="M238.646 24.8676C239.946 24.8676 241 25.9217 241 27.2219C241 28.5222 239.946 29.5763 238.646 29.5763C237.346 29.5763 236.292 28.5222 236.292 27.2219C236.292 25.9217 237.346 24.8676 238.646 24.8676Z" fill="white" fill-opacity="0.5"/>
<path d="M14.7882 12.4338C16.0884 12.4338 17.1425 13.4879 17.1425 14.7881C17.1425 16.0884 16.0884 17.1425 14.7882 17.1425C13.4879 17.1425 12.4338 16.0884 12.4338 14.7881C12.4338 13.4879 13.4879 12.4338 14.7882 12.4338Z" fill="white" fill-opacity="0.5"/>
<path d="M27.2219 12.4338C28.5222 12.4338 29.5763 13.4879 29.5763 14.7881C29.5763 16.0884 28.5222 17.1425 27.2219 17.1425C25.9216 17.1425 24.8676 16.0884 24.8676 14.7881C24.8676 13.4879 25.9216 12.4338 27.2219 12.4338Z" fill="white" fill-opacity="0.5"/>
<path d="M39.68 12.4338C40.9803 12.4338 42.0343 13.4879 42.0343 14.7881C42.0343 16.0884 40.9803 17.1425 39.68 17.1425C38.3798 17.1425 37.3257 16.0884 37.3257 14.7881C37.3257 13.4879 38.3798 12.4338 39.68 12.4338Z" fill="white" fill-opacity="0.5"/>
<path d="M52.1142 12.4338C53.4145 12.4338 54.4686 13.4879 54.4686 14.7881C54.4686 16.0884 53.4145 17.1425 52.1142 17.1425C50.814 17.1425 49.7599 16.0884 49.7599 14.7881C49.7599 13.4879 50.814 12.4338 52.1142 12.4338Z" fill="white" fill-opacity="0.5"/>
<path d="M64.548 12.4338C65.8478 12.4338 66.9024 13.4884 66.9024 14.7881C66.9024 16.0879 65.8478 17.1425 64.548 17.1425C63.2482 17.1425 62.1937 16.0879 62.1937 14.7881C62.1937 13.4884 63.2482 12.4338 64.548 12.4338Z" fill="white" fill-opacity="0.5"/>
<path d="M76.9818 12.4338C78.2821 12.4338 79.3361 13.4879 79.3361 14.7881C79.3361 16.0884 78.2821 17.1425 76.9818 17.1425C75.6816 17.1425 74.6275 16.0884 74.6275 14.7881C74.6275 13.4879 75.6816 12.4338 76.9818 12.4338Z" fill="white" fill-opacity="0.5"/>
<path d="M89.4157 12.4338C90.7159 12.4338 91.77 13.4879 91.77 14.7881C91.77 16.0884 90.7159 17.1425 89.4157 17.1425C88.1154 17.1425 87.0613 16.0884 87.0613 14.7881C87.0613 13.4879 88.1154 12.4338 89.4157 12.4338Z" fill="white" fill-opacity="0.5"/>
<path d="M101.849 12.4338C103.149 12.4338 104.204 13.4884 104.204 14.7881C104.204 16.0879 103.149 17.1425 101.849 17.1425C100.55 17.1425 99.4951 16.0879 99.4951 14.7881C99.4951 13.4884 100.55 12.4338 101.849 12.4338Z" fill="white" fill-opacity="0.5"/>
<path d="M114.283 12.4338C115.583 12.4338 116.638 13.4879 116.638 14.7881C116.638 16.0884 115.583 17.1425 114.283 17.1425C112.983 17.1425 111.929 16.0884 111.929 14.7881C111.929 13.4879 112.983 12.4338 114.283 12.4338Z" fill="white" fill-opacity="0.5"/>
<path d="M126.717 12.4338C128.017 12.4338 129.071 13.4879 129.071 14.7881C129.071 16.0884 128.017 17.1425 126.717 17.1425C125.416 17.1425 124.362 16.0884 124.362 14.7881C124.362 13.4879 125.416 12.4338 126.717 12.4338Z" fill="white" fill-opacity="0.5"/>
<path d="M139.151 12.4338C140.451 12.4338 141.505 13.4879 141.505 14.7881C141.505 16.0884 140.451 17.1425 139.151 17.1425C137.851 17.1425 136.796 16.0884 136.796 14.7881C136.796 13.4879 137.851 12.4338 139.151 12.4338Z" fill="white" fill-opacity="0.5"/>
<path d="M151.585 12.4338C152.885 12.4338 153.939 13.4879 153.939 14.7881C153.939 16.0884 152.885 17.1425 151.585 17.1425C150.285 17.1425 149.231 16.0884 149.231 14.7881C149.231 13.4879 150.285 12.4338 151.585 12.4338Z" fill="white" fill-opacity="0.5"/>
<path d="M164.043 12.4338C165.343 12.4338 166.397 13.4879 166.397 14.7881C166.397 16.0884 165.343 17.1425 164.043 17.1425C162.742 17.1425 161.688 16.0884 161.688 14.7881C161.688 13.4879 162.742 12.4338 164.043 12.4338Z" fill="white" fill-opacity="0.5"/>
<path d="M176.477 12.4338C177.777 12.4338 178.831 13.4879 178.831 14.7881C178.831 16.0884 177.777 17.1425 176.477 17.1425C175.177 17.1425 174.123 16.0884 174.123 14.7881C174.123 13.4879 175.177 12.4338 176.477 12.4338Z" fill="white" fill-opacity="0.5"/>
<path d="M188.911 12.4338C190.211 12.4338 191.265 13.4884 191.265 14.7881C191.265 16.0879 190.211 17.1425 188.911 17.1425C187.611 17.1425 186.556 16.0879 186.556 14.7881C186.556 13.4884 187.611 12.4338 188.911 12.4338Z" fill="white" fill-opacity="0.5"/>
<path d="M201.345 12.4338C202.645 12.4338 203.699 13.4879 203.699 14.7881C203.699 16.0884 202.645 17.1425 201.345 17.1425C200.044 17.1425 198.99 16.0884 198.99 14.7881C198.99 13.4879 200.044 12.4338 201.345 12.4338Z" fill="white" fill-opacity="0.5"/>
<path d="M213.778 12.4338C215.078 12.4338 216.132 13.4879 216.132 14.7881C216.132 16.0884 215.078 17.1425 213.778 17.1425C212.478 17.1425 211.424 16.0884 211.424 14.7881C211.424 13.4879 212.478 12.4338 213.778 12.4338Z" fill="white" fill-opacity="0.5"/>
<path d="M226.212 12.4338C227.511 12.4338 228.566 13.4884 228.566 14.7881C228.566 16.0879 227.511 17.1425 226.212 17.1425C224.912 17.1425 223.857 16.0879 223.857 14.7881C223.857 13.4884 224.912 12.4338 226.212 12.4338Z" fill="white" fill-opacity="0.5"/>
<path d="M238.646 12.4338C239.946 12.4338 241 13.4879 241 14.7881C241 16.0884 239.946 17.1425 238.646 17.1425C237.346 17.1425 236.292 16.0884 236.292 14.7881C236.292 13.4879 237.346 12.4338 238.646 12.4338Z" fill="white" fill-opacity="0.5"/>
<path d="M2.35438 -3.67165e-05C3.65417 -3.67165e-05 4.70869 1.05449 4.70869 2.35427C4.70869 3.65406 3.65417 4.70862 2.35438 4.70862C1.0546 4.70862 0 3.65406 0 2.35427C0 1.05449 1.0546 -3.67165e-05 2.35438 -3.67165e-05Z" fill="white" fill-opacity="0.5"/>
<path d="M14.7882 -3.67165e-05C16.088 -3.67165e-05 17.1425 1.05449 17.1425 2.35427C17.1425 3.65406 16.088 4.70862 14.7882 4.70862C13.4884 4.70862 12.4338 3.65406 12.4338 2.35427C12.4338 1.05449 13.4884 -3.67165e-05 14.7882 -3.67165e-05Z" fill="white" fill-opacity="0.5"/>
<path d="M27.2219 -3.67165e-05C28.5217 -3.67165e-05 29.5763 1.05449 29.5763 2.35427C29.5763 3.65406 28.5217 4.70862 27.2219 4.70862C25.9221 4.70862 24.8676 3.65406 24.8676 2.35427C24.8676 1.05449 25.9221 -3.67165e-05 27.2219 -3.67165e-05Z" fill="white" fill-opacity="0.5"/>
<path d="M39.68 -3.67165e-05C40.9798 -3.67165e-05 42.0343 1.05449 42.0343 2.35427C42.0343 3.65406 40.9798 4.70862 39.68 4.70862C38.3803 4.70862 37.3257 3.65406 37.3257 2.35427C37.3257 1.05449 38.3803 -3.67165e-05 39.68 -3.67165e-05Z" fill="white" fill-opacity="0.5"/>
<path d="M52.1142 -3.67165e-05C53.414 -3.67165e-05 54.4686 1.05449 54.4686 2.35427C54.4686 3.65406 53.414 4.70862 52.1142 4.70862C50.8144 4.70862 49.7599 3.65406 49.7599 2.35427C49.7599 1.05449 50.8144 -3.67165e-05 52.1142 -3.67165e-05Z" fill="white" fill-opacity="0.5"/>
<path d="M64.548 -3.67165e-05C65.8478 -3.67165e-05 66.9024 1.05449 66.9024 2.35427C66.9024 3.65406 65.8478 4.70862 64.548 4.70862C63.2482 4.70862 62.1937 3.65406 62.1937 2.35427C62.1937 1.05449 63.2482 -3.67165e-05 64.548 -3.67165e-05Z" fill="white" fill-opacity="0.5"/>
<path d="M76.9818 -3.67165e-05C78.2816 -3.67165e-05 79.3361 1.05449 79.3361 2.35427C79.3361 3.65406 78.2816 4.70862 76.9818 4.70862C75.682 4.70862 74.6275 3.65406 74.6275 2.35427C74.6275 1.05449 75.682 -3.67165e-05 76.9818 -3.67165e-05Z" fill="white" fill-opacity="0.5"/>
<path d="M89.4157 -3.67165e-05C90.7155 -3.67165e-05 91.77 1.05449 91.77 2.35427C91.77 3.65406 90.7155 4.70862 89.4157 4.70862C88.1159 4.70862 87.0613 3.65406 87.0613 2.35427C87.0613 1.05449 88.1159 -3.67165e-05 89.4157 -3.67165e-05Z" fill="white" fill-opacity="0.5"/>
<path d="M101.849 -3.67165e-05C103.149 -3.67165e-05 104.204 1.05449 104.204 2.35427C104.204 3.65406 103.149 4.70862 101.849 4.70862C100.55 4.70862 99.4951 3.65406 99.4951 2.35427C99.4951 1.05449 100.55 -3.67165e-05 101.849 -3.67165e-05Z" fill="white" fill-opacity="0.5"/>
<path d="M114.283 -3.67165e-05C115.583 -3.67165e-05 116.638 1.05449 116.638 2.35427C116.638 3.65406 115.583 4.70862 114.283 4.70862C112.983 4.70862 111.929 3.65406 111.929 2.35427C111.929 1.05449 112.983 -3.67165e-05 114.283 -3.67165e-05Z" fill="white" fill-opacity="0.5"/>
<path d="M126.717 -3.67165e-05C128.016 -3.67165e-05 129.071 1.05449 129.071 2.35427C129.071 3.65406 128.016 4.70862 126.717 4.70862C125.417 4.70862 124.362 3.65406 124.362 2.35427C124.362 1.05449 125.417 -3.67165e-05 126.717 -3.67165e-05Z" fill="white" fill-opacity="0.5"/>
<path d="M139.151 -3.67165e-05C140.451 -3.67165e-05 141.505 1.05449 141.505 2.35427C141.505 3.65406 140.451 4.70862 139.151 4.70862C137.851 4.70862 136.796 3.65406 136.796 2.35427C136.796 1.05449 137.851 -3.67165e-05 139.151 -3.67165e-05Z" fill="white" fill-opacity="0.5"/>
<path d="M151.585 -3.67165e-05C152.885 -3.67165e-05 153.939 1.05449 153.939 2.35427C153.939 3.65406 152.885 4.70862 151.585 4.70862C150.285 4.70862 149.231 3.65406 149.231 2.35427C149.231 1.05449 150.285 -3.67165e-05 151.585 -3.67165e-05Z" fill="white" fill-opacity="0.5"/>
<path d="M164.043 -3.67165e-05C165.342 -3.67165e-05 166.397 1.05449 166.397 2.35427C166.397 3.65406 165.342 4.70862 164.043 4.70862C162.743 4.70862 161.688 3.65406 161.688 2.35427C161.688 1.05449 162.743 -3.67165e-05 164.043 -3.67165e-05Z" fill="white" fill-opacity="0.5"/>
<path d="M176.477 -3.67165e-05C177.777 -3.67165e-05 178.831 1.05449 178.831 2.35427C178.831 3.65406 177.777 4.70862 176.477 4.70862C175.177 4.70862 174.123 3.65406 174.123 2.35427C174.123 1.05449 175.177 -3.67165e-05 176.477 -3.67165e-05Z" fill="white" fill-opacity="0.5"/>
<path d="M188.911 -3.67165e-05C190.211 -3.67165e-05 191.265 1.05449 191.265 2.35427C191.265 3.65406 190.211 4.70862 188.911 4.70862C187.611 4.70862 186.556 3.65406 186.556 2.35427C186.556 1.05449 187.611 -3.67165e-05 188.911 -3.67165e-05Z" fill="white" fill-opacity="0.5"/>
<path d="M201.345 -3.67165e-05C202.644 -3.67165e-05 203.699 1.05449 203.699 2.35427C203.699 3.65406 202.644 4.70862 201.345 4.70862C200.045 4.70862 198.99 3.65406 198.99 2.35427C198.99 1.05449 200.045 -3.67165e-05 201.345 -3.67165e-05Z" fill="white" fill-opacity="0.5"/>
<path d="M213.778 -3.67165e-05C215.078 -3.67165e-05 216.132 1.05449 216.132 2.35427C216.132 3.65406 215.078 4.70862 213.778 4.70862C212.478 4.70862 211.424 3.65406 211.424 2.35427C211.424 1.05449 212.478 -3.67165e-05 213.778 -3.67165e-05Z" fill="white" fill-opacity="0.5"/>
<path d="M226.212 -3.67165e-05C227.511 -3.67165e-05 228.566 1.05449 228.566 2.35427C228.566 3.65406 227.511 4.70862 226.212 4.70862C224.912 4.70862 223.857 3.65406 223.857 2.35427C223.857 1.05449 224.912 -3.67165e-05 226.212 -3.67165e-05Z" fill="white" fill-opacity="0.5"/>
<path d="M238.646 -3.67165e-05C239.946 -3.67165e-05 241 1.05449 241 2.35427C241 3.65406 239.946 4.70862 238.646 4.70862C237.346 4.70862 236.292 3.65406 236.292 2.35427C236.292 1.05449 237.346 -3.67165e-05 238.646 -3.67165e-05Z" fill="white" fill-opacity="0.5"/>
</svg>
