<svg width="51" height="50" viewBox="0 0 51 50" fill="none" xmlns="http://www.w3.org/2000/svg">
<path d="M37.1967 2.87894V21.54H13.2311C12.7456 21.54 12.3521 21.9335 12.3521 22.419V41.1716C11.9995 40.9241 11.6546 40.6662 11.318 40.3986C11.2106 40.3132 9.41189 40.2268 9.30615 40.1394C7.40069 38.5643 5.77095 36.6675 4.5 34.5322V2.87894C4.5 2.3935 4.8935 2 5.37894 2H36.3177C36.8032 2 37.1967 2.3935 37.1967 2.87894Z" fill="#C3CBD9"/>
<path d="M40.3326 7.93534V36.3387C36.4095 41.6349 30.1144 45.0681 23.0174 45.0681C17.8078 45.0681 13.0303 43.2181 9.30591 40.1394V7.93534C9.30591 7.4499 9.69941 7.0564 10.1849 7.0564H39.4537C39.9391 7.0564 40.3326 7.4499 40.3326 7.93534Z" fill="#DDE2EA"/>
<path d="M22.9267 14.234H13.2583C12.7729 14.234 12.3794 13.8405 12.3794 13.355C12.3794 12.8696 12.7729 12.4761 13.2583 12.4761H22.9267C23.4121 12.4761 23.8056 12.8696 23.8056 13.355C23.8056 13.8405 23.4121 14.234 22.9267 14.234Z" fill="#C3CBD9"/>
<path d="M33.539 17.7498H13.2583C12.7729 17.7498 12.3794 17.3563 12.3794 16.8709C12.3794 16.3854 12.7729 15.9919 13.2583 15.9919H33.539C34.0244 15.9919 34.4179 16.3854 34.4179 16.8709C34.4179 17.3563 34.0244 17.7498 33.539 17.7498ZM34.4179 20.3867C34.4179 19.9012 34.0244 19.5077 33.539 19.5077H13.2583C12.7729 19.5077 12.3794 19.9012 12.3794 20.3867C12.3794 20.8721 12.7729 21.2656 13.2583 21.2656H33.539C34.0244 21.2656 34.4179 20.8721 34.4179 20.3867ZM30.4534 23.9024C30.4534 23.417 30.0599 23.0235 29.5745 23.0235H13.2583C12.7729 23.0235 12.3794 23.417 12.3794 23.9024C12.3794 24.3879 12.7729 24.7814 13.2583 24.7814H29.5745C30.0599 24.7814 30.4534 24.3879 30.4534 23.9024Z" fill="#C3CBD9"/>
<path d="M20.2867 44.7972L20.0413 44.0229L22.224 39.3848L23.426 39.3464L26.3782 42.2986L26.3399 43.5007L21.7018 45.6833L20.9989 45.5093L20.2867 44.7972Z" fill="#FFE3AA"/>
<path d="M20.5372 45.0476L19.9276 44.4381L19.6822 43.6637L21.8649 39.0256L23.0669 38.9873L24.3806 40.301L23.3951 40.5559L20.5372 45.0476Z" fill="#FFD980"/>
<path d="M19.6779 43.6619L21.6973 45.6812L18.9874 46.9565C18.6148 47.1318 18.2273 46.7443 18.4026 46.3717L19.6779 43.6619Z" fill="#FF872A"/>
<path d="M44.5781 21.9619L42.7136 23.8264C42.3704 24.1696 41.8138 24.1696 41.4706 23.8264L39.889 22.2448C39.5458 21.9016 39.5458 21.345 39.889 21.0018L41.7535 19.1373C42.0967 18.7941 42.6533 18.7941 42.9965 19.1373L44.5781 20.7189C44.9213 21.0621 44.9213 21.6186 44.5781 21.9619Z" fill="#DF680B"/>
<path d="M46.2281 23.6122L44.3636 25.4767C44.0204 25.8199 43.4638 25.8199 43.1206 25.4767L41.4191 23.7751C41.0758 23.4319 41.0758 22.8753 41.4191 22.5321L43.2836 20.6676C43.6268 20.3243 44.1833 20.3243 44.5266 20.6676L46.2281 22.3691C46.5714 22.7124 46.5714 23.269 46.2281 23.6122Z" fill="#FF872A"/>
<path d="M26.3395 43.5005L23.3536 40.5146C23.285 40.446 23.285 40.3347 23.3536 40.2661L41.1287 22.4909C41.1974 22.4223 41.3087 22.4223 41.3773 22.4909L44.3632 25.4768L26.3395 43.5005Z" fill="#FF872A"/>
<path d="M23.3948 40.5559L21.8646 39.0256L39.8883 21.002L41.4185 22.5322L23.3948 40.5559ZM41.1993 26.939L27.8017 40.3366C27.4585 40.6798 26.902 40.6798 26.5587 40.3366C26.2155 39.9934 26.2155 39.4368 26.5587 39.0936L39.9563 25.696C40.2995 25.3528 40.8561 25.3528 41.1993 25.696C41.5425 26.0393 41.5425 26.5958 41.1993 26.939Z" fill="#DF680B"/>
<path d="M16.9048 40.9646C16.9048 41.4743 16.4916 41.8875 15.9819 41.8875C15.4722 41.8875 15.059 41.4743 15.059 40.9646C15.059 40.4549 15.4722 40.0417 15.9819 40.0417C16.4916 40.0417 16.9048 40.4549 16.9048 40.9646ZM15.9818 38.6827C16.4673 38.6827 16.8608 38.2892 16.8608 37.8038V34.4873C16.8608 34.0019 16.4673 33.6084 15.9818 33.6084C15.4964 33.6084 15.1029 34.0019 15.1029 34.4873V37.8038C15.1029 38.2892 15.4965 38.6827 15.9818 38.6827Z" fill="#304C7A"/>
<path d="M18.9192 34.1039C18.1575 34.9061 17.0868 35.3663 15.9817 35.3663C15.4963 35.3663 15.1028 34.9728 15.1028 34.4873C15.1028 34.0019 15.4963 33.6084 15.9817 33.6084C16.6162 33.6084 17.2067 33.3545 17.6443 32.8936C18.0817 32.4331 18.3043 31.8289 18.2713 31.1925C18.2094 30.0003 17.2247 29.0475 16.0295 29.0235C14.8658 28.9978 13.8714 29.8476 13.7112 30.9948C13.6966 31.1001 13.6891 31.2082 13.6891 31.3157C13.6891 31.8011 13.2956 32.1946 12.8102 32.1946C12.3247 32.1946 11.9312 31.8011 11.9312 31.3157C11.9312 31.1271 11.9443 30.9375 11.9702 30.7518C12.2533 28.7232 14.0123 27.2256 16.065 27.2659C18.1772 27.3085 19.9175 28.9932 20.0268 31.1014C20.0851 32.224 19.6917 33.2903 18.9192 34.1039Z" fill="#304C7A"/>
</svg>
