<svg width="31" height="44" viewBox="0 0 31 44" fill="none" xmlns="http://www.w3.org/2000/svg">
<path fill-rule="evenodd" clip-rule="evenodd" d="M25.8166 11.4557H4.95959C5.80839 9.38724 7.2531 7.61795 9.11006 6.37274C10.967 5.12754 13.1523 4.46267 15.3881 4.46267C17.6239 4.46267 19.8092 5.12754 21.6662 6.37274C23.5231 7.61795 24.9678 9.38724 25.8166 11.4557ZM7.43253 6.76502C7.44929 6.75015 7.46588 6.73528 7.48272 6.7205C7.46553 6.73519 7.44929 6.75015 7.43253 6.76502ZM8.10198 6.21244C8.12416 6.19525 8.14624 6.17806 8.16859 6.16139C8.14624 6.17858 8.12416 6.19577 8.10198 6.21244ZM9.22914 5.44562C9.2648 5.42413 9.30064 5.40265 9.33656 5.38202C9.30064 5.40308 9.2648 5.42413 9.22914 5.44562ZM9.75628 5.14733C9.79873 5.12464 9.84119 5.10204 9.88399 5.07987C9.84102 5.10204 9.79873 5.12464 9.75628 5.14733ZM9.99347 5.02409C10.0358 5.0027 10.0784 4.98164 10.121 4.96067C10.078 4.98155 10.0358 5.0027 9.99347 5.02409ZM10.2282 4.90859C10.2826 4.88281 10.3373 4.85703 10.392 4.83202C10.3373 4.8572 10.2826 4.88255 10.2282 4.90859ZM10.5081 4.77969C10.5678 4.75305 10.6278 4.72681 10.6881 4.70097C10.6279 4.72664 10.5679 4.75287 10.5081 4.77969ZM10.7886 4.65895C10.8373 4.63866 10.8862 4.61861 10.9352 4.59879C10.8862 4.61838 10.8373 4.63843 10.7886 4.65895ZM11.2835 4.4655C11.3627 4.43651 11.4423 4.40844 11.5224 4.38128C11.4422 4.40861 11.3625 4.43668 11.2835 4.4655ZM12.1326 4.19179C12.2161 4.16836 12.2999 4.1457 12.3839 4.12381C12.2998 4.14558 12.216 4.16824 12.1326 4.19179ZM12.4366 4.11075C12.5063 4.09305 12.5762 4.07586 12.6464 4.05919C12.5762 4.07563 12.5063 4.09282 12.4366 4.11075ZM12.7368 4.03891C12.7967 4.02539 12.8568 4.01232 12.9172 3.99972C12.857 4.01232 12.7969 4.02539 12.7368 4.03891ZM13.0074 3.98098C13.0811 3.96609 13.1551 3.95177 13.2294 3.93802C13.1549 3.95154 13.0809 3.96586 13.0074 3.98098ZM13.2733 3.9302C13.3616 3.9145 13.4504 3.8998 13.5397 3.88611C13.4506 3.89986 13.3618 3.91455 13.2733 3.9302ZM13.9048 3.83549C13.9728 3.82707 14.041 3.81925 14.1095 3.81203C14.0411 3.81936 13.9729 3.82718 13.9048 3.83549ZM16.6669 3.81203C16.7354 3.81936 16.8036 3.82718 16.8716 3.83549C16.8036 3.82707 16.7354 3.81925 16.6669 3.81203ZM17.2371 3.88611C17.3261 3.89986 17.4149 3.91455 17.5035 3.9302C17.4151 3.9145 17.3263 3.8998 17.2371 3.88611ZM17.5471 3.93845C17.6216 3.95197 17.6956 3.96629 17.7691 3.98141C17.6954 3.96652 17.6214 3.9522 17.5471 3.93845ZM18.1301 4.05987C18.2004 4.07632 18.2703 4.09351 18.3399 4.11144C18.2702 4.09373 18.2002 4.07655 18.1301 4.05987ZM19.2539 4.38162C19.3341 4.40895 19.4138 4.43703 19.4928 4.46584C19.4136 4.43685 19.334 4.40878 19.2539 4.38162ZM19.8411 4.59982C19.8901 4.61941 19.939 4.63947 19.9877 4.65998C19.939 4.6397 19.8901 4.61964 19.8411 4.59982ZM20.0883 4.70174C20.1486 4.72741 20.2085 4.75365 20.2682 4.78046C20.2085 4.75382 20.1485 4.72758 20.0883 4.70174ZM20.3843 4.83305C20.439 4.85823 20.4937 4.88359 20.5481 4.90962C20.4937 4.88384 20.439 4.85806 20.3843 4.83305ZM20.6553 4.96196C20.6979 4.98281 20.7405 5.00396 20.7829 5.02538C20.7406 5.00401 20.698 4.98287 20.6553 4.96196ZM20.8923 5.08116C20.9353 5.10333 20.9776 5.12593 21.02 5.14862C20.9776 5.12593 20.9351 5.10333 20.8923 5.08116ZM21.4397 5.38331C21.4757 5.40437 21.5116 5.42542 21.5473 5.44691C21.5116 5.42542 21.4757 5.40394 21.4397 5.38331ZM22.195 5.86473C22.223 5.88407 22.2511 5.90332 22.2788 5.92283C22.2511 5.90323 22.223 5.88407 22.195 5.86473ZM22.6077 6.16268C22.6301 6.17987 22.6521 6.19705 22.6743 6.21373C22.6521 6.19654 22.6301 6.17935 22.6077 6.16268ZM23.2936 6.72179C23.3108 6.73648 23.327 6.75144 23.3438 6.7663C23.327 6.75144 23.3104 6.73648 23.2936 6.72179ZM23.7725 7.16609C23.784 7.17709 23.7953 7.18811 23.8065 7.19917C23.795 7.18811 23.7837 7.17709 23.7725 7.16609ZM23.9375 7.33057C23.9503 7.34355 23.9633 7.35635 23.9757 7.36967C23.963 7.35532 23.9504 7.34226 23.9376 7.32928L23.9375 7.33057Z" fill="#D80027"/>
<path fill-rule="evenodd" clip-rule="evenodd" d="M4.95959 20.0083H25.8166C24.9678 22.0767 23.5231 23.846 21.6662 25.0912C19.8092 26.3364 17.6239 27.0013 15.3881 27.0013C13.1523 27.0013 10.967 26.3364 9.11006 25.0912C7.2531 23.846 5.80839 22.0767 4.95959 20.0083ZM23.3443 24.6991C23.3271 24.7142 23.3106 24.7292 23.2937 24.7441C23.3109 24.7292 23.3274 24.7142 23.3443 24.6991ZM22.6741 25.2524C22.6521 25.2696 22.6303 25.2862 22.6082 25.3028C22.6303 25.2862 22.6521 25.2692 22.6741 25.2524ZM22.4828 25.3961C22.4564 25.4155 22.4297 25.4349 22.4031 25.4542C22.4299 25.4349 22.4564 25.4155 22.4828 25.3961ZM21.3267 26.1483C21.2593 26.1868 21.1915 26.2246 21.1234 26.2619C21.1916 26.2247 21.2594 26.1868 21.3267 26.1483ZM21.0203 26.3169C20.9779 26.3398 20.9354 26.3622 20.8929 26.3842C20.9356 26.3621 20.978 26.3397 21.0203 26.3169ZM20.5485 26.5556C20.4941 26.5814 20.4393 26.6072 20.3843 26.6323C20.4393 26.607 20.4941 26.5817 20.5485 26.5556ZM20.2691 26.6845C20.2091 26.7113 20.149 26.7376 20.0886 26.7635C20.1491 26.7376 20.2093 26.7113 20.2691 26.6845ZM19.9883 26.8054C19.9395 26.8257 19.8906 26.8458 19.8416 26.8656C19.8906 26.846 19.9395 26.826 19.9883 26.8054ZM19.493 26.999C19.414 27.0276 19.3346 27.0556 19.2548 27.0829C19.3345 27.0558 19.4139 27.0278 19.493 26.999ZM18.644 27.2727C18.5605 27.2962 18.4766 27.3189 18.3924 27.3407C18.4767 27.319 18.5606 27.2963 18.644 27.2727ZM17.5034 27.5342C17.4151 27.55 17.3263 27.5645 17.237 27.5784C17.3259 27.5645 17.4147 27.55 17.5034 27.5342ZM15.9531 27.7067C15.8869 27.7098 15.8205 27.7123 15.754 27.7142C15.8204 27.7122 15.8868 27.7096 15.9531 27.7067ZM14.1092 27.6523C14.0409 27.6451 13.9727 27.6373 13.9047 27.6289C13.9726 27.6373 14.0408 27.6451 14.1092 27.6523ZM13.5393 27.5784C13.4502 27.5645 13.3615 27.55 13.2728 27.5342C13.3611 27.5499 13.4499 27.5646 13.5393 27.5784ZM12.3843 27.3404C12.3 27.3186 12.2161 27.2959 12.1326 27.2723C12.2162 27.2958 12.3 27.3185 12.3843 27.3404ZM11.522 27.0826C11.4422 27.0554 11.3628 27.0274 11.2837 26.9986C11.3627 27.0273 11.4421 27.0553 11.522 27.0826ZM11.2002 26.9674C11.1457 26.9471 11.0912 26.9264 11.0369 26.9053C11.0911 26.9264 11.1455 26.9472 11.2002 26.9674ZM10.9352 26.865C10.8861 26.8454 10.8372 26.8254 10.7884 26.8048C10.8372 26.8251 10.8861 26.8452 10.9352 26.865ZM10.6882 26.7632C10.6277 26.7373 10.5675 26.7109 10.5077 26.6842C10.5677 26.7109 10.6279 26.7373 10.6882 26.7632ZM10.3924 26.6319C10.3375 26.6067 10.2826 26.5813 10.2283 26.5553C10.2826 26.5811 10.3375 26.6068 10.3924 26.6319ZM9.8839 26.3842C9.84093 26.3621 9.79882 26.3396 9.75645 26.3169C9.79882 26.3396 9.84119 26.3621 9.8839 26.3842ZM9.33631 26.0819C9.30056 26.061 9.26489 26.0399 9.22931 26.0188C9.26483 26.04 9.3005 26.0611 9.33631 26.0819ZM8.16833 25.3028C8.14624 25.2862 8.1245 25.2692 8.1025 25.2524C8.1245 25.2696 8.14624 25.2862 8.16833 25.3028ZM7.48289 24.7441C7.4657 24.7292 7.44912 24.7142 7.43227 24.6991C7.44946 24.7142 7.46596 24.7292 7.48289 24.7441ZM7.00259 24.2985L6.97036 24.267C6.98102 24.2776 6.99184 24.288 7.00259 24.2985ZM6.83819 24.1345C6.82593 24.1221 6.8137 24.1096 6.80149 24.0969C6.81381 24.1093 6.8261 24.1218 6.83836 24.1342L6.83819 24.1345Z" fill="#FF872A"/>
<path fill-rule="evenodd" clip-rule="evenodd" d="M4.96072 11.4553H25.8178C26.9385 14.196 26.9385 17.2671 25.8178 20.0078H4.96072C3.83997 17.2671 3.83997 14.196 4.96072 11.4553ZM26.7849 12.0016C26.7907 12.0195 26.7966 12.0375 26.8021 12.0553C26.7964 12.0373 26.7906 12.0194 26.7849 12.0016ZM26.9442 12.5297C26.9564 12.5737 26.9684 12.6178 26.9801 12.6621C26.9686 12.6178 26.9567 12.5737 26.9442 12.5297ZM27.3171 14.5221C27.3264 14.6138 27.3346 14.7054 27.3416 14.7971C27.3346 14.705 27.3264 14.6133 27.3171 14.5221ZM27.3429 14.8175C27.3503 14.9145 27.3565 15.0119 27.3614 15.1096C27.3565 15.0122 27.3503 14.9149 27.3429 14.8175ZM27.3735 16.0459C27.371 16.1449 27.3673 16.2434 27.3623 16.3416C27.3672 16.2433 27.371 16.1448 27.3735 16.0459ZM27.3617 16.3538C27.3567 16.4512 27.3505 16.5486 27.3431 16.6459C27.3505 16.549 27.3567 16.4516 27.3617 16.3538ZM27.0547 18.5045C27.0423 18.5565 27.0296 18.6084 27.0166 18.6602C27.0296 18.6087 27.0423 18.5568 27.0547 18.5045ZM3.76215 18.6602C3.74908 18.6087 3.73639 18.5568 3.72408 18.5045C3.73645 18.5565 3.74914 18.6084 3.76215 18.6602ZM3.63513 18.0983C3.62161 18.0307 3.60863 17.9629 3.5962 17.8949C3.60858 17.9628 3.62155 18.0306 3.63513 18.0983ZM3.43558 16.6459C3.42819 16.5489 3.42201 16.4515 3.41702 16.3537C3.42206 16.4511 3.42825 16.5485 3.43558 16.6459ZM3.41642 16.3418C3.41155 16.2435 3.40783 16.1449 3.40525 16.0461C3.40783 16.145 3.41155 16.2436 3.41642 16.3418ZM3.40499 15.4172C3.40745 15.3184 3.41118 15.2198 3.41616 15.1216C3.41129 15.2198 3.40757 15.3184 3.40499 15.4172ZM3.41676 15.1095C3.42181 15.0121 3.42799 14.9147 3.43533 14.8173C3.42794 14.9142 3.42175 15.0116 3.41676 15.1095ZM3.43687 14.7977C3.44392 14.7056 3.45208 14.6139 3.46137 14.5227C3.45208 14.6144 3.44392 14.706 3.43687 14.7977ZM3.50047 14.1809C3.51124 14.0978 3.5227 14.015 3.53484 13.9325C3.52235 14.015 3.51089 14.0978 3.50047 14.1809ZM3.79841 12.662C3.80987 12.6177 3.82182 12.5736 3.83425 12.5296C3.82205 12.5736 3.8101 12.6177 3.79841 12.662ZM3.97622 12.0553C3.98197 12.0373 3.98782 12.0195 3.9934 12.0015C3.98756 12.0196 3.98175 12.0377 3.97596 12.0556L3.97622 12.0553Z" fill="#0052B4"/>
<path fill-rule="evenodd" clip-rule="evenodd" d="M15.3886 4.79272C9.34701 4.79272 4.44934 9.69039 4.44934 15.732C4.44934 21.7735 9.34701 26.6712 15.3886 26.6712C21.4302 26.6712 26.3278 21.7735 26.3278 15.732C26.3278 9.69039 21.4302 4.79272 15.3886 4.79272ZM2.38684 15.732C2.38684 8.5513 8.20792 2.73022 15.3886 2.73022C22.5692 2.73022 28.3903 8.5513 28.3903 15.732C28.3903 22.9126 22.5692 28.7337 15.3886 28.7337C8.20792 28.7337 2.38684 22.9126 2.38684 15.732Z" fill="white"/>
<path fill-rule="evenodd" clip-rule="evenodd" d="M27.3591 15.732C27.3591 18.0995 26.657 20.4139 25.3417 22.3824C24.0263 24.351 22.1568 25.8853 19.9695 26.7913C17.7822 27.6973 15.3753 27.9343 13.0532 27.4725C10.7312 27.0106 8.59826 25.8705 6.92415 24.1964C5.25005 22.5223 4.10997 20.3894 3.64809 18.0673C3.1862 15.7453 3.42326 13.3384 4.32928 11.1511C5.2353 8.96375 6.76958 7.09421 8.73812 5.77888C10.7067 4.46354 13.021 3.76148 15.3886 3.76148C18.5633 3.76148 21.6081 5.02266 23.853 7.26756C26.0979 9.51246 27.3591 12.5572 27.3591 15.732ZM15.1205 44C20.5388 38.2751 30.7771 23.8133 30.7771 15.732C30.7771 -5.24399 0 -5.24399 0 15.732C0 23.7983 9.71669 38.2901 15.1205 44Z" fill="#C3CBD9"/>
<path fill-rule="evenodd" clip-rule="evenodd" d="M15.1208 27.6994V44C20.5391 38.2751 30.7774 23.8133 30.7774 15.732C30.7774 5.12185 22.9033 -0.121112 15.1208 0.00212255V3.76404C15.2099 3.76203 15.2993 3.76106 15.3888 3.76111C16.9635 3.7569 18.5235 4.06341 19.9796 4.66309C21.4356 5.26277 22.759 6.14384 23.874 7.25582C24.9889 8.36779 25.8735 9.68883 26.4771 11.1432C27.0807 12.5977 27.3914 14.1569 27.3914 15.7316C27.3914 17.3062 27.0807 18.8655 26.4771 20.3199C25.8735 21.7743 24.9889 23.0953 23.874 24.2073C22.759 25.3193 21.4356 26.2004 19.9796 26.8C18.5235 27.3997 16.9635 27.7062 15.3888 27.702C15.2992 27.7022 15.2099 27.7014 15.1208 27.6994Z" fill="#DDE2EA"/>
</svg>
