<svg width="51" height="50" viewBox="0 0 51 50" fill="none" xmlns="http://www.w3.org/2000/svg">
<path d="M14.1208 42.4786L8.4636 47.5619C8.35963 47.6567 8.23299 47.7232 8.09586 47.755C7.95874 47.7867 7.81575 47.7826 7.68067 47.7431C7.54558 47.7036 7.42295 47.6299 7.32458 47.5292C7.22621 47.4286 7.15541 47.3043 7.119 47.1683L6.11956 43.5461C6.0863 43.4236 6.0254 43.3104 5.94154 43.2152C5.85768 43.12 5.7531 43.0452 5.63583 42.9968L2.12673 41.6194C1.99752 41.5677 1.88357 41.484 1.79561 41.3762C1.70766 41.2684 1.64861 41.1399 1.624 41.003C1.5994 40.866 1.61006 40.725 1.65498 40.5933C1.6999 40.4616 1.7776 40.3435 1.88077 40.2502L10.0837 32.877L14.1208 42.4786Z" fill="#FF872A"/>
<path d="M40.69 32.877L48.8929 40.2502C48.9961 40.3435 49.0738 40.4616 49.1187 40.5933C49.1637 40.725 49.1743 40.866 49.1497 41.003C49.1251 41.1399 49.066 41.2684 48.9781 41.3762C48.8901 41.484 48.7762 41.5677 48.647 41.6194L45.1379 42.9968C45.0206 43.0452 44.916 43.12 44.8322 43.2152C44.7483 43.3104 44.6874 43.4236 44.6542 43.5461L43.6539 47.17C43.6175 47.3059 43.5467 47.4302 43.4483 47.5309C43.3499 47.6316 43.2273 47.7052 43.0922 47.7447C42.9571 47.7843 42.8142 47.7884 42.677 47.7566C42.5399 47.7249 42.4133 47.6584 42.3093 47.5635L36.6521 42.4802L40.69 32.877Z" fill="#FF872A"/>
<path d="M16.6868 44.0521C14.3572 42.9833 12.4556 41.1608 11.2888 38.8786C10.122 36.5965 9.75808 33.9879 10.2557 31.4735L12.2357 20.7044C18.7751 20.5871 22.8794 18.6333 25.3866 16.6213C27.893 18.6333 31.9989 20.5871 38.5383 20.7044L40.5183 31.4743C41.0157 33.9886 40.6516 36.597 39.4849 38.879C38.3181 41.1609 36.4166 42.9833 34.0872 44.0521L25.3866 47.7769L16.6868 44.0521Z" fill="#C3CBD9"/>
<path d="M17.9779 41.0372C16.3298 40.2638 14.9901 38.9582 14.1744 37.3306C13.3588 35.7031 13.1148 33.8484 13.4816 32.0652L14.9951 23.8361C18.6585 23.5636 22.212 22.4621 25.3871 20.6147C28.5624 22.462 32.1158 23.5635 35.7792 23.8361L37.2927 32.0693C37.6594 33.852 37.4154 35.7063 36.5999 37.3334C35.7844 38.9606 34.4449 40.2658 32.7972 41.0388L25.3871 44.2085L17.9779 41.0372Z" fill="#EDF0F5"/>
<path d="M24.1693 27.3968C23.9829 27.2848 23.7597 27.2515 23.5488 27.3041C23.3378 27.3566 23.1564 27.4909 23.0444 27.6772L21.2874 30.605L19.5304 27.6772C19.476 27.5828 19.4033 27.5003 19.3167 27.4343C19.23 27.3683 19.131 27.3203 19.0256 27.293C18.9202 27.2657 18.8103 27.2597 18.7026 27.2753C18.5948 27.2909 18.4912 27.3279 18.3978 27.384C18.3045 27.4401 18.2232 27.5142 18.1588 27.6021C18.0945 27.6899 18.0482 27.7897 18.0228 27.8956C17.9974 28.0015 17.9934 28.1114 18.011 28.2189C18.0285 28.3264 18.0673 28.4293 18.1251 28.5217L20.3314 32.1988L18.1251 35.876C18.0673 35.9683 18.0285 36.0712 18.011 36.1787C17.9934 36.2862 17.9974 36.3961 18.0228 36.502C18.0482 36.608 18.0945 36.7078 18.1588 36.7956C18.2232 36.8834 18.3045 36.9576 18.3978 37.0137C18.4912 37.0698 18.5948 37.1067 18.7026 37.1223C18.8103 37.138 18.9202 37.1319 19.0256 37.1046C19.131 37.0774 19.23 37.0293 19.3167 36.9634C19.4033 36.8974 19.476 36.8148 19.5304 36.7205L21.2874 33.7927L23.0444 36.7205C23.0988 36.8148 23.1715 36.8974 23.2581 36.9634C23.3448 37.0293 23.4438 37.0774 23.5492 37.1046C23.6546 37.1319 23.7644 37.138 23.8722 37.1223C23.98 37.1067 24.0836 37.0698 24.177 37.0137C24.2703 36.9576 24.3516 36.8834 24.416 36.7956C24.4803 36.7078 24.5266 36.608 24.552 36.502C24.5774 36.3961 24.5814 36.2862 24.5638 36.1787C24.5463 36.0712 24.5075 35.9683 24.4497 35.876L22.2434 32.1988L24.4497 28.5217C24.5616 28.3353 24.595 28.1121 24.5424 27.9012C24.4898 27.6902 24.3556 27.5088 24.1693 27.3968Z" fill="#304C7A"/>
<path d="M29.4857 27.2795H27.0261C26.8086 27.2795 26.6001 27.3659 26.4463 27.5197C26.2926 27.6734 26.2062 27.882 26.2062 28.0994V36.2982C26.2062 36.5157 26.2926 36.7242 26.4463 36.878C26.6001 37.0317 26.8086 37.1181 27.0261 37.1181C27.2435 37.1181 27.452 37.0317 27.6058 36.878C27.7596 36.7242 27.8459 36.5157 27.8459 36.2982V33.8386H29.4857C30.3555 33.8386 31.1897 33.4931 31.8047 32.878C32.4197 32.263 32.7652 31.4289 32.7652 30.5591C32.7652 29.6893 32.4197 28.8551 31.8047 28.2401C31.1897 27.6251 30.3555 27.2795 29.4857 27.2795ZM29.4857 32.1988H27.8459V28.9193H29.4857C29.9206 28.9193 30.3377 29.0921 30.6452 29.3996C30.9527 29.7071 31.1255 30.1242 31.1255 30.5591C31.1255 30.994 30.9527 31.411 30.6452 31.7186C30.3377 32.0261 29.9206 32.1988 29.4857 32.1988Z" fill="#304C7A"/>
<path d="M28.6376 14.3615L25.7369 12.9973C25.6276 12.9458 25.5084 12.9192 25.3876 12.9192C25.2669 12.9192 25.1476 12.9458 25.0383 12.9973L22.1392 14.364C22.0079 14.4259 21.8625 14.4518 21.7179 14.439C21.5733 14.4263 21.4346 14.3754 21.3161 14.2915C21.1976 14.2076 21.1035 14.0937 21.0435 13.9616C20.9834 13.8294 20.9595 13.6836 20.9742 13.5392L21.3235 10.1088C21.3348 9.99798 21.3234 9.886 21.29 9.77971C21.2566 9.67342 21.2018 9.57506 21.1291 9.49063L18.8991 6.90226C18.8065 6.79485 18.7434 6.66527 18.7159 6.52618C18.6884 6.38709 18.6974 6.24324 18.7421 6.10868C18.7868 5.97412 18.8656 5.85346 18.9709 5.75846C19.0761 5.66346 19.2042 5.59738 19.3426 5.56667L22.5311 4.86075C22.6455 4.83514 22.7531 4.78529 22.8466 4.71457C22.9401 4.64385 23.0173 4.55391 23.0731 4.45081L24.6628 1.53777C24.7334 1.40862 24.8375 1.30085 24.9641 1.22578C25.0906 1.1507 25.2351 1.11108 25.3823 1.11108C25.5295 1.11108 25.6739 1.1507 25.8005 1.22578C25.9271 1.30085 26.0312 1.40862 26.1017 1.53777L27.6939 4.44917C27.7498 4.55236 27.8272 4.64236 27.9208 4.71308C28.0144 4.7838 28.1222 4.8336 28.2367 4.85911L31.4252 5.56175C31.5638 5.59224 31.6921 5.65816 31.7975 5.75307C31.903 5.84797 31.982 5.96862 32.0268 6.10321C32.0717 6.2378 32.0809 6.38173 32.0535 6.52092C32.026 6.66012 31.963 6.78982 31.8704 6.89734L29.6436 9.48817C29.5708 9.5727 29.516 9.6712 29.4826 9.77764C29.4492 9.88407 29.4379 9.99621 29.4493 10.1072L29.8019 13.5367C29.8165 13.6811 29.7926 13.8267 29.7325 13.9588C29.6725 14.0908 29.5785 14.2046 29.4601 14.2884C29.3418 14.3723 29.2032 14.4233 29.0588 14.4361C28.9143 14.4489 28.7689 14.4232 28.6376 14.3615Z" fill="#FF872A"/>
<path d="M42.1199 17.933L40.0398 16.2973C39.945 16.2226 39.8348 16.1698 39.7172 16.1425C39.5995 16.1153 39.4774 16.1144 39.3593 16.1399L36.7734 16.6999C36.6315 16.7306 36.484 16.7231 36.346 16.6781C36.208 16.6331 36.0844 16.5523 35.9878 16.4439C35.8913 16.3355 35.8252 16.2034 35.7964 16.0611C35.7677 15.9188 35.7772 15.7715 35.824 15.6341L36.748 12.9285C36.7854 12.8223 36.8006 12.7096 36.7926 12.5973C36.7845 12.485 36.7534 12.3756 36.7013 12.2758L35.3772 9.75879C35.311 9.63292 35.2788 9.49203 35.2835 9.34993C35.2883 9.20784 35.33 9.06943 35.4044 8.94828C35.4788 8.82714 35.5834 8.72744 35.708 8.65895C35.8326 8.59047 35.9729 8.55556 36.1151 8.55766L38.8207 8.58307C38.9376 8.58414 39.0534 8.56018 39.1603 8.51281C39.2672 8.46544 39.3627 8.39575 39.4405 8.30841L41.2631 6.25871C41.3609 6.14875 41.4865 6.06713 41.6266 6.02241C41.7668 5.9777 41.9165 5.97154 42.0599 6.00458C42.2033 6.03761 42.3351 6.10864 42.4416 6.21019C42.5481 6.31174 42.6253 6.44008 42.6651 6.58174L43.403 9.22176C43.4347 9.3343 43.4901 9.43875 43.5654 9.52812C43.6408 9.61749 43.7344 9.68971 43.84 9.73993L46.2857 10.9042C46.4138 10.965 46.5239 11.0581 46.6053 11.1742C46.6867 11.2904 46.7365 11.4257 46.75 11.5668C46.7634 11.708 46.7401 11.8503 46.6821 11.9797C46.6242 12.1092 46.5336 12.2214 46.4193 12.3053L44.1237 13.9877C44.0339 14.0538 43.9585 14.1374 43.9021 14.2335C43.8457 14.3297 43.8095 14.4363 43.7957 14.5469L43.4391 17.387C43.4214 17.5311 43.3658 17.668 43.2779 17.7836C43.19 17.8992 43.073 17.9894 42.9388 18.045C42.8046 18.1005 42.6581 18.1194 42.5142 18.0997C42.3703 18.0801 42.2342 18.0225 42.1199 17.933Z" fill="#FF872A"/>
<path d="M8.65388 17.933L10.7339 16.2973C10.8288 16.2226 10.9389 16.1698 11.0566 16.1425C11.1742 16.1153 11.2964 16.1144 11.4144 16.1399L14.0003 16.6999C14.1422 16.7306 14.2897 16.7231 14.4277 16.6781C14.5658 16.6331 14.6894 16.5523 14.7859 16.4439C14.8825 16.3355 14.9485 16.2034 14.9773 16.0611C15.0061 15.9188 14.9966 15.7715 14.9498 15.6341L14.0258 12.9285C13.9883 12.8223 13.9732 12.7096 13.9812 12.5973C13.9892 12.485 14.0203 12.3756 14.0725 12.2758L15.3966 9.75879C15.4625 9.63323 15.4948 9.49272 15.4902 9.35097C15.4856 9.20923 15.4443 9.07109 15.3704 8.95007C15.2965 8.82905 15.1924 8.72927 15.0684 8.66049C14.9444 8.59171 14.8046 8.55628 14.6628 8.55766L11.9572 8.58307C11.8403 8.58414 11.7245 8.56018 11.6176 8.51281C11.5106 8.46544 11.4151 8.39575 11.3374 8.30841L9.51476 6.25871C9.41698 6.14875 9.2914 6.06713 9.15121 6.02241C9.01102 5.9777 8.86138 5.97154 8.71799 6.00458C8.5746 6.03761 8.44274 6.10864 8.33625 6.21019C8.22976 6.31174 8.15256 6.44008 8.11276 6.58174L7.37487 9.22176C7.34318 9.3343 7.28779 9.43875 7.21242 9.52812C7.13705 9.61749 7.04344 9.68971 6.93787 9.73993L4.49216 10.9042C4.36406 10.965 4.25395 11.0581 4.17257 11.1742C4.0912 11.2904 4.04134 11.4257 4.02787 11.5668C4.01441 11.708 4.03779 11.8503 4.09575 11.9797C4.1537 12.1092 4.24424 12.2214 4.35852 12.3053L6.65419 13.9877C6.74399 14.0538 6.81939 14.1374 6.87577 14.2335C6.93216 14.3297 6.96835 14.4363 6.98214 14.5469L7.33879 17.387C7.35686 17.5304 7.41254 17.6665 7.50018 17.7815C7.58783 17.8965 7.70432 17.9863 7.83784 18.0417C7.97137 18.0971 8.11718 18.1163 8.26049 18.0972C8.40381 18.0781 8.53952 18.0215 8.65388 17.933Z" fill="#FF872A"/>
</svg>
